<?xml version="1.0" encoding="UTF-8"?>
<svg width="28px" height="37px" viewBox="0 0 28 37" version="1.1" xmlns="http://www.w3.org/2000/svg" xmlns:xlink="http://www.w3.org/1999/xlink">
    <!-- Generator: sketchtool 49.2 (51160) - http://www.bohemiancoding.com/sketch -->
    <title>A6693FF4-1051-4BFD-98FD-67C4CC1A5DC9</title>
    <desc>Created with sketchtool.</desc>
    <defs></defs>
    <g id="Symbols" stroke="none" stroke-width="1" fill="none" fill-rule="evenodd">
        <g id="Desktop/Footer/Default" transform="translate(-864.000000, -49.000000)" fill="#000000">
            <g id="Footer">
                <g id="USPs-footer" transform="translate(141.000000, 38.000000)">
                    <g id="USPs-Footer" transform="translate(72.000000, 0.000000)">
                        <g id="Desktop/Icons/USPs-3" transform="translate(635.000000, 0.000000)">
                            <g id="002-diploma-copy" transform="translate(16.000000, 11.000000)">
                                <path d="M22.0244882,0 L0,0 L0,36.6699982 L27.5024986,36.6699982 L27.5024986,5.47889712 L22.0244882,0 Z M22.1552879,2.29204275 L25.2104148,5.34738353 L22.1552879,5.34738353 L22.1552879,2.29204275 Z M25.9759647,35.1409849 L1.52832444,35.1409849 L1.52832444,1.52820755 L20.6266949,1.52820755 L20.6266949,6.87568061 L25.9759647,6.87568061 L25.9759647,35.1409849 Z" id="Fill-1"></path>
                                <path d="M22.1170745,26.5857487 L17.3035496,26.5857487 C16.8606403,26.5857487 16.5014992,26.9956543 16.5014992,27.5022298 C16.5014992,28.0088053 16.8606403,28.4192486 17.3035496,28.4192486 L22.1170745,28.4192486 C22.5603599,28.4192486 22.9187489,28.0088053 22.9187489,27.5022298 C22.9187489,26.9956543 22.5603599,26.5857487 22.1170745,26.5857487 Z" id="Fill-2"></path>
                                <path d="M22.1553427,13.7512493 L5.34823031,13.7512493 C4.92574716,13.7512493 4.58374977,14.1612244 4.58374977,14.6677844 C4.58374977,15.1739146 4.92574716,15.5847492 5.34823031,15.5847492 L22.1553427,15.5847492 C22.5774677,15.5847492 22.9187489,15.1739146 22.9187489,14.6677844 C22.9187489,14.1612244 22.5774677,13.7512493 22.1553427,13.7512493 Z" id="Fill-3"></path>
                                <path d="M22.1553427,18.3349991 L5.34823031,18.3349991 C4.92574716,18.3349991 4.58374977,18.7447821 4.58374977,19.2511047 C4.58374977,19.7578569 4.92574716,20.168499 5.34823031,20.168499 L22.1553427,20.168499 C22.5774677,20.168499 22.9187489,19.7578569 22.9187489,19.2511047 C22.9187489,18.7447821 22.5774677,18.3349991 22.1553427,18.3349991 Z" id="Fill-4"></path>
                                <path d="M13.8921619,9.16749954 L5.35995074,9.16749954 C4.93099039,9.16749954 4.58374977,9.57789162 4.58374977,10.0838736 C4.58374977,10.5902852 4.93099039,11.0009995 5.35995074,11.0009995 L13.8921619,11.0009995 C14.320395,11.0009995 14.6679993,10.5902852 14.6679993,10.0838736 C14.6679993,9.57789162 14.320395,9.16749954 13.8921619,9.16749954 Z" id="Fill-5"></path>
                                <path d="M8.2508785,22.9187489 C6.22596961,22.9187489 4.58374977,24.6775902 4.58374977,26.8481968 C4.58374977,28.132569 5.16014668,29.2744992 6.05073876,29.9903004 L6.05073876,33.9197483 L8.2508785,33.1324039 L10.4507604,33.9197483 L10.4507604,29.9903004 C11.3413525,29.2741309 11.9177494,28.132569 11.9177494,26.8481968 C11.9177494,24.6775902 10.2758733,22.9187489 8.2508785,22.9187489 Z M8.98411518,31.738645 L8.71417889,31.6429778 L8.2508785,31.4771484 L7.78663277,31.6429778 L7.51772776,31.738645 L7.51772776,30.6967097 C7.75440542,30.7484566 7.99950516,30.7750666 8.2508785,30.7750666 C8.50199401,30.7750666 8.74709376,30.7484566 8.98411518,30.6967097 L8.98411518,31.738645 Z M8.2508785,29.2050737 C7.03732539,29.2050737 6.05073876,28.1461963 6.05073876,26.8481968 C6.05073876,25.5476191 7.03732539,24.4908595 8.2508785,24.4908595 C9.46417379,24.4908595 10.4507604,25.5476191 10.4507604,26.8481968 C10.4507604,28.1461963 9.46417379,29.2050737 8.2508785,29.2050737 Z" id="Fill-6"></path>
                                <path d="M8.25069586,25.6689987 C7.7441543,25.6689987 7.33399963,26.0796408 7.33399963,26.5872521 C7.33399963,27.0918565 7.7441543,27.5024986 8.25069586,27.5024986 C8.75691505,27.5024986 9.16749954,27.0918565 9.16749954,26.5872521 C9.16749954,26.0796408 8.75691505,25.6689987 8.25069586,25.6689987 Z" id="Fill-8"></path>
                            </g>
                        </g>
                    </g>
                </g>
            </g>
        </g>
    </g>
</svg>