<?xml version="1.0" encoding="UTF-8"?>
<svg width="19px" height="15px" viewBox="0 0 19 15" version="1.1" xmlns="http://www.w3.org/2000/svg" xmlns:xlink="http://www.w3.org/1999/xlink">
    <!-- Generator: sketchtool 49.1 (51147) - http://www.bohemiancoding.com/sketch -->
    <title>B1A1CAE1-C64B-4997-9076-6D4BD619ADE3@3x</title>
    <desc>Created with sketchtool.</desc>
    <defs></defs>
    <g id="Symbols" stroke="none" stroke-width="1" fill="none" fill-rule="evenodd">
        <g id="Desktop/Footer/Email-sign-up" transform="translate(-521.000000, -367.000000)" fill="#FF1300">
            <g id="Footer">
                <g id="Contact" transform="translate(521.000000, 322.000000)">
                    <g id="Desktop/Icons/Envelope" transform="translate(0.000000, 43.000000)">
                        <g id="envelope" transform="translate(0.000000, 2.000000)">
                            <path d="M16.665062,0.0372013559 L2.32128941,0.0372013559 C1.04077778,0.0372013559 0,1.07487444 0,2.35156624 L0,12.125733 C0,13.402229 1.04077778,14.4399021 2.32128941,14.4399021 L16.6610362,14.4399021 C17.9415478,14.4399021 18.9823747,13.402229 18.9823747,12.125733 L18.9823747,2.35538427 C18.9862041,1.07888827 17.9454264,0.0372013559 16.665062,0.0372013559 Z M17.9258372,12.125733 C17.9258372,12.818853 17.3603049,13.3827473 16.665062,13.3827473 L2.32128941,13.3827473 C1.62609561,13.3827473 1.06056331,12.818853 1.06056331,12.125733 L1.06056331,2.35538427 C1.06056331,1.66226427 1.62609561,1.09841898 2.32128941,1.09841898 L16.6610362,1.09841898 C17.3562791,1.09841898 17.9218114,1.66226427 17.9218114,2.35538427 L17.9218114,12.125733 L17.9258372,12.125733 Z" id="Fill-1"></path>
                            <path d="M11.9488825,6.90737151 L16.5377132,2.81336279 C16.7513876,2.62025145 16.7707022,2.29191389 16.5765851,2.07562919 C16.3824681,1.86325499 16.0524205,1.84404041 15.8352035,2.03715175 L9.50688962,7.68754133 L8.27220794,6.59052408 C8.26842265,6.58675841 8.26463737,6.58299273 8.26463737,6.57903395 C8.23731539,6.55204664 8.21023606,6.52887328 8.1791288,6.50565164 L3.1554273,2.03319297 C2.93796764,1.84008163 2.60792007,1.85929621 2.41380299,2.07562919 C2.21968591,2.29191389 2.23924321,2.62025145 2.45646022,2.81336279 L7.09993489,6.942035 L2.47601752,11.2484179 C2.26632254,11.445488 2.25457846,11.7737773 2.45267494,11.9861515 C2.55749816,12.0941973 2.69721393,12.1522755 2.8369297,12.1522755 C2.9650955,12.1522755 3.09321277,12.1058805 3.19425071,12.0130905 L7.88795318,7.64510511 L9.16126416,8.77659274 C9.2623021,8.86542396 9.3864885,8.90786018 9.51086902,8.90786018 C9.6350069,8.90786018 9.7631727,8.86165829 9.86023124,8.77282707 L11.1686289,7.60643457 L15.8352035,12.0170493 C15.9360473,12.113605 16.0679984,12.16 16.1961157,12.16 C16.3358314,12.16 16.4717619,12.1058805 16.5765851,11.9976416 C16.7746816,11.7892745 16.7669169,11.4569782 16.5572705,11.2601011 L11.9488825,6.90737151 Z" id="Fill-4"></path>
                        </g>
                    </g>
                </g>
            </g>
        </g>
    </g>
</svg>