<?xml version="1.0" encoding="UTF-8"?>
<svg width="40px" height="40px" viewBox="0 0 40 40" version="1.1" xmlns="http://www.w3.org/2000/svg" xmlns:xlink="http://www.w3.org/1999/xlink">
    <!-- Generator: sketchtool 49.1 (51147) - http://www.bohemiancoding.com/sketch -->
    <title>E43E42AF-3E2C-4F3F-8DD4-BA4472D24312@3x</title>
    <desc>Created with sketchtool.</desc>
    <defs></defs>
    <g id="Symbols" stroke="none" stroke-width="1" fill="none" fill-rule="evenodd">
        <g id="Desktop/Footer/Email-sign-up" transform="translate(-891.000000, -528.000000)">
            <g id="Footer">
                <g id="Newsletter" transform="translate(840.000000, 322.000000)">
                    <g id="Buttons/Shop-Now-4-Copy" transform="translate(0.000000, 176.000000)">
                        <g id="social">
                            <g id="Desktop/Icons/Social/Instagram" transform="translate(51.000000, 30.000000)">
                                <g id="Instagram">
                                    <circle id="Oval" stroke="#96999B" cx="20" cy="20" r="19.5"></circle>
                                    <g id="002-instagram" transform="translate(13.000000, 13.000000)" fill="#000000">
                                        <g id="Group-3">
                                            <path d="M10.2072293,0.0136253041 L3.7790439,0.0136253041 C1.69529756,0.0136253041 0,1.70479805 0,3.78347445 L0,10.1960195 C0,12.2747981 1.69529756,13.9660049 3.7790439,13.9660049 L10.2072293,13.9660049 C12.291078,13.9660049 13.9864098,12.2747981 13.9864098,10.1960195 L13.9864098,3.78347445 C13.9864098,1.70479805 12.291078,0.0136253041 10.2072293,0.0136253041 Z M12.8563707,10.1960195 C12.8563707,11.6532798 11.6680439,12.8387153 10.2072293,12.8387153 L3.7790439,12.8387153 C2.31836585,12.8387153 1.12990244,11.6532798 1.12990244,10.1960195 L1.12990244,3.78347445 C1.12990244,2.32635036 2.31836585,1.14077859 3.7790439,1.14077859 L10.2072293,1.14077859 C11.6680439,1.14077859 12.8563707,2.32635036 12.8563707,3.78347445 L12.8563707,10.1960195 Z" id="Fill-1"></path>
                                        </g>
                                        <path d="M10.1033802,6.53942623 C10.0039813,5.86860946 9.69789413,5.26064866 9.2183542,4.78106437 C8.73891674,4.30161673 8.13090971,3.99550128 7.46015498,3.89609318 C7.154751,3.85072756 6.84517978,3.85072756 6.5397758,3.89609318 C5.71076845,4.01896979 4.97945213,4.45732192 4.48016905,5.13056411 C3.98098844,5.8036355 3.77365121,6.63094317 3.89668724,7.45989055 C4.01955248,8.28897458 4.45786407,9.0204952 5.13100983,9.51982447 C5.67743054,9.92507473 6.32533376,10.137931 6.99342419,10.137931 C7.14819272,10.137931 7.30419093,10.126453 7.46015498,10.1033602 C8.28912817,9.98031283 9.02061528,9.5419607 9.51976173,8.86888931 C10.0190448,8.19568128 10.2262454,7.3684761 10.1033802,6.53942623 Z M7.29442183,8.98510455 C6.76405524,9.06384533 6.23502081,8.93119872 5.80429223,8.61176053 C5.37373444,8.29242483 5.09340221,7.82445523 5.01480534,7.29414207 C4.93607185,6.76386307 5.06870619,6.23464305 5.38801236,5.80401127 C5.707421,5.37341366 6.17538147,5.09291885 6.70561142,5.01431471 C6.80326828,4.99976219 6.9016083,4.99255425 6.99994831,4.99255425 C7.09828832,4.99255425 7.19662834,4.99976219 7.2942852,5.01431471 C8.17507561,5.14494584 8.85460887,5.82443947 8.98522791,6.7052772 C9.14761361,7.80003022 8.38907359,8.82284048 7.29442183,8.98510455 Z" id="Fill-4"></path>
                                        <path d="M10.9266478,3.07331572 C10.8142512,2.96091905 10.6586755,2.89655172 10.5,2.89655172 C10.3411422,2.89655172 10.1857488,2.96091905 10.0733522,3.07331572 C9.96095552,3.18560297 9.89655172,3.34085041 9.89655172,3.5 C9.89655172,3.65896725 9.96095552,3.81425115 10.0733522,3.92664781 C10.1857488,4.03904448 10.3411422,4.10344828 10.5,4.10344828 C10.6586755,4.10344828 10.8142512,4.03904448 10.9266478,3.92664781 C11.0390445,3.81425115 11.1034483,3.6586755 11.1034483,3.5 C11.1034483,3.34114216 11.0390445,3.18560297 10.9266478,3.07331572 Z" id="Fill-5"></path>
                                    </g>
                                </g>
                            </g>
                        </g>
                    </g>
                </g>
            </g>
        </g>
    </g>
</svg>