<?xml version="1.0" encoding="UTF-8"?>
<svg width="42px" height="12px" viewBox="0 0 42 12" version="1.1" xmlns="http://www.w3.org/2000/svg" xmlns:xlink="http://www.w3.org/1999/xlink">
    <!-- Generator: sketchtool 49.2 (51160) - http://www.bohemiancoding.com/sketch -->
    <title>3B762508-7A26-40A2-969E-44677771FD6B</title>
    <desc>Created with sketchtool.</desc>
    <defs></defs>
    <g id="Symbols" stroke="none" stroke-width="1" fill="none" fill-rule="evenodd">
        <g id="Desktop/Footer/Email-sign-up" transform="translate(-1301.000000, -652.000000)" fill="#97999B">
            <g id="Footer">
                <g id="Payment-logos" transform="translate(1097.000000, 652.000000)">
                    <g id="Klarna" transform="translate(204.000000, 0.000000)">
                        <path d="M32.85765,6.1278 C32.87445,7.74375 32.86185,9.3597 32.86185,10.97565 C32.86185,11.35365 32.8209,11.3988 32.43135,11.3988 C31.98405,11.3988 31.53255,11.3988 31.08525,11.3988 C30.73665,11.3988 30.6957,11.361 30.6957,11.0166 C30.6957,9.4458 30.6999,7.8792 30.6915,6.3084 C30.6915,6.0459 30.65475,5.7834 30.6096,5.5251 C30.5403,5.1513 30.2862,4.93815 29.925,4.88145 C29.26455,4.77015 28.67445,4.9791 28.12425,5.32035 C28.05075,5.36445 28.0224,5.5293 28.0224,5.63535 C28.014,6.95625 28.0182,8.27715 28.0182,9.59805 C28.0182,10.09365 28.014,10.5903 28.0224,11.08695 C28.02555,11.31585 27.9237,11.40195 27.70215,11.3988 C27.2055,11.3904 26.7099,11.3988 26.21325,11.3946 C25.92555,11.3946 25.84785,11.3127 25.84785,11.0208 C25.84785,8.52285 25.84785,6.0249 25.84785,3.52695 C25.84785,3.26445 25.92555,3.18255 26.18805,3.18255 C26.63955,3.17835 27.08685,3.17835 27.53415,3.17835 C27.8208,3.18255 27.87015,3.2361 27.87435,3.5196 C27.87855,3.62565 27.88695,3.73275 27.8943,3.90495 C28.04235,3.81045 28.12845,3.7569 28.21455,3.70335 C29.08815,3.10905 30.05625,2.9652 31.0779,3.1458 C32.0082,3.3096 32.51745,3.9333 32.7054,4.8195 C32.7999,5.2458 32.85345,5.6889 32.85765,6.1278 Z M41.7501,2.6166 L41.6472,2.8959 C41.62305,2.9694 41.60205,3.03135 41.58525,3.09225 C41.5695,3.03135 41.5527,2.9652 41.52855,2.8959 L41.42985,2.6166 L41.33535,2.6166 L41.2944,3.19515 L41.36475,3.19515 L41.3805,2.94525 C41.3847,2.85915 41.3889,2.76045 41.3931,2.69115 C41.4099,2.76045 41.43405,2.83395 41.4582,2.91585 L41.5527,3.19095 L41.61045,3.19095 L41.71335,2.9085 C41.7417,2.82975 41.76585,2.75625 41.78685,2.69115 C41.78685,2.76045 41.79105,2.85915 41.79945,2.94105 L41.811,3.19515 L41.88555,3.19515 L41.84775,2.6166 L41.7501,2.6166 Z M19.12155,5.57865 C19.1667,7.41195 19.1583,9.24105 19.1709,11.07435 C19.1709,11.32005 19.0806,11.3988 18.8307,11.3988 C18.39915,11.40195 17.96445,11.40195 17.53395,11.3988 C17.1696,11.3988 17.12445,11.35365 17.10345,10.99245 C17.10345,10.9557 17.09505,10.91475 17.08665,10.8402 C16.84095,10.97565 16.632,11.1069 16.41045,11.214 C15.63975,11.58675 14.83965,11.62035 14.03115,11.382 C13.3056,11.16465 12.8583,10.6638 12.6819,9.92985 C12.55485,9.40065 12.54225,8.86725 12.64935,8.3391 C12.81735,7.518 13.3665,7.06335 14.13405,6.8334 C14.8806,6.60765 15.6429,6.5835 16.41045,6.59085 C16.9596,6.59925 16.9596,6.59085 16.9596,6.0375 C16.9596,5.89365 16.968,5.74665 16.94385,5.607 C16.86195,5.1555 16.56165,4.87725 16.06605,4.87725 C15.2376,4.87725 14.40495,4.914 13.5765,4.95915 C13.17015,4.9833 13.1166,4.96335 13.1166,4.5528 C13.1166,4.26615 13.1208,3.97425 13.1124,3.6876 C13.1082,3.52695 13.17435,3.4209 13.32555,3.38835 C14.6139,3.11325 15.9096,2.92425 17.21475,3.2487 C18.3918,3.53535 19.089,4.35645 19.12155,5.57865 Z M17.01315,9.2946 C16.9932,9.1056 17.00895,8.9124 17.00895,8.72025 C17.00895,8.47035 17.01735,8.2236 17.00055,7.9737 C16.9974,7.91175 16.91025,7.8057 16.8651,7.8057 C16.3653,7.82565 15.86445,7.83825 15.36465,7.9002 C15.0612,7.93695 14.83965,8.1585 14.7777,8.46615 C14.721,8.7486 14.7042,9.05205 14.72415,9.33975 C14.75355,9.65895 14.9835,9.84795 15.2985,9.9015 C15.80355,9.9876 16.2792,9.8889 16.74645,9.7083 C16.95225,9.6306 17.03835,9.51615 17.01315,9.2946 Z M40.5027,6.0333 C40.5069,7.6986 40.5027,9.3639 40.5027,11.0292 C40.5027,11.35785 40.46175,11.3988 40.12575,11.3988 C39.711,11.3988 39.2931,11.3988 38.87835,11.3988 C38.5224,11.3988 38.4972,11.3736 38.4804,11.025 C38.47725,10.98405 38.47305,10.9473 38.46465,10.90635 C38.46465,10.88955 38.44785,10.88115 38.4237,10.8444 C38.37015,10.8696 38.325,10.88115 38.28825,10.91055 C37.7307,11.32845 37.086,11.4891 36.4056,11.5416 C35.05635,11.6487 34.0263,10.7625 33.9612,9.41325 C33.9486,9.08145 33.936,8.7402 33.98955,8.4126 C34.1124,7.6251 34.59645,7.1043 35.343,6.89115 C35.90895,6.7347 36.5001,6.6696 37.086,6.59925 C37.42725,6.5583 37.77585,6.5877 38.12025,6.59085 C38.26725,6.59505 38.3418,6.5457 38.3334,6.3861 C38.3208,6.1488 38.346,5.90205 38.304,5.66895 C38.21475,5.14395 37.91445,4.87305 37.38525,4.87305 C36.561,4.87725 35.74095,4.914 34.9167,4.96335 C34.50615,4.9833 34.44525,4.95075 34.44525,4.52445 C34.44525,4.26195 34.44945,3.99525 34.44525,3.73275 C34.44525,3.52695 34.53555,3.4125 34.7445,3.36315 C35.7,3.15 36.6681,3.03135 37.6446,3.09225 C38.0541,3.12165 38.46885,3.21195 38.8584,3.339 C39.78975,3.65085 40.30215,4.33545 40.44915,5.29095 C40.4901,5.5377 40.4985,5.7876 40.5027,6.0333 Z M38.38695,9.3723 C38.37435,9.15495 38.38275,8.9376 38.38275,8.72445 C38.38275,8.4945 38.37855,8.26035 38.38695,8.02725 C38.3901,7.8708 38.3334,7.7889 38.1654,7.7973 C37.86195,7.8057 37.5543,7.7805 37.254,7.8015 C36.2418,7.8792 36.0612,8.25615 36.0486,9.0846 C36.0402,9.57705 36.26595,9.83955 36.6555,9.9057 C37.1973,9.996 37.7013,9.8805 38.19375,9.66315 C38.325,9.60645 38.3901,9.5235 38.38695,9.3723 Z M11.08695,0.3444 L9.6957,0.3444 C9.3471,0.3486 9.31455,0.38115 9.31455,0.73395 L9.31455,11.05755 C9.31455,11.34525 9.3639,11.3946 9.6474,11.3988 C10.10205,11.3988 10.55775,11.3988 11.0166,11.3988 C11.4429,11.3988 11.4849,11.361 11.4849,10.9347 L11.4849,2.1735 C11.4849,1.68945 11.4849,1.2138 11.4849,0.72975 C11.4849,0.40635 11.42295,0.3486 11.08695,0.3444 Z M40.81875,2.67855 L40.99515,2.67855 L40.99515,3.19515 L41.06865,3.19515 L41.06865,2.67855 L41.24505,2.67855 L41.24505,2.6166 L40.81875,2.6166 L40.81875,2.67855 Z M24.63405,3.0849 C24.01035,3.10905 23.4444,3.30645 22.9404,3.6708 C22.87005,3.72015 22.80075,3.7695 22.69785,3.843 C22.68945,3.72855 22.6821,3.6582 22.6821,3.5889 C22.6737,3.2445 22.61175,3.18255 22.27575,3.18255 C21.84105,3.17835 21.41055,3.18255 20.979,3.18255 C20.5821,3.18255 20.51595,3.2445 20.51595,3.63825 L20.51595,6.95205 C20.51595,8.29395 20.51595,9.6264 20.51595,10.9641 C20.51595,11.31585 20.59365,11.3988 20.9349,11.3988 C21.38955,11.3988 21.84525,11.3988 22.2999,11.3988 C22.6695,11.3988 22.72725,11.34105 22.72725,10.9641 C22.7304,9.1875 22.7304,7.40775 22.72725,5.63115 C22.72725,5.45475 22.77555,5.3571 22.9362,5.27835 C23.47275,5.02845 24.01875,4.83945 24.62145,4.86465 C24.8388,4.87305 24.9459,4.79115 24.9417,4.557 C24.9333,4.16325 24.9333,3.7737 24.9417,3.37995 C24.9417,3.1668 24.8472,3.0765 24.63405,3.0849 Z M1.96455,0.3486 C1.53825,0.3444 1.1151,0.3444 0.6888,0.3486 C0.2457,0.3528 0,0.6069 0,1.0542 L0,6.00495 C0,7.67865 0,9.3471 0,11.0208 C0,11.31585 0.04095,11.35785 0.3318,11.35785 C0.7665,11.361 1.19805,11.361 1.62855,11.35785 C2.0832,11.35365 2.30895,11.1279 2.30895,10.6764 L2.30895,0.7098 C2.31315,0.41475 2.25225,0.3486 1.96455,0.3486 Z M6.7347,7.8834 C5.80755,6.9111 4.66725,6.3777 3.4251,6.25485 C3.02295,6.25065 3.01875,6.25065 3.03135,6.5499 C3.03555,6.6612 3.0555,6.77145 3.0723,6.88275 C3.29385,8.35905 4.0152,9.5319 5.21325,10.4097 C6.00075,10.98825 6.8901,11.2875 7.8582,11.3778 C8.1459,11.40615 8.19525,11.3862 8.16585,11.1027 C8.043,9.8721 7.5957,8.78115 6.7347,7.8834 Z M7.8666,0.3738 C7.75635,0.38955 7.64085,0.38535 7.5348,0.40215 C6.27165,0.6027 5.20065,1.1613 4.34805,2.1168 C3.5679,2.9946 3.1332,4.0236 3.03135,5.19225 C3.00615,5.4957 3.02295,5.4957 3.3432,5.5377 C3.7821,5.4306 4.24095,5.3613 4.6599,5.20485 C6.7557,4.40475 7.90335,2.86335 8.17005,0.64365 C8.2026,0.3612 8.1543,0.32865 7.8666,0.3738 Z"></path>
                    </g>
                </g>
            </g>
        </g>
    </g>
</svg>