<?xml version="1.0" encoding="UTF-8"?>
<svg width="30px" height="17px" viewBox="0 0 30 17" version="1.1" xmlns="http://www.w3.org/2000/svg" xmlns:xlink="http://www.w3.org/1999/xlink">
    <!-- Generator: sketchtool 49.2 (51160) - http://www.bohemiancoding.com/sketch -->
    <title>FDA43B44-BA77-45BE-9598-85A7A97FA16A</title>
    <desc>Created with sketchtool.</desc>
    <defs></defs>
    <g id="Symbols" stroke="none" stroke-width="1" fill="none" fill-rule="evenodd">
        <g id="Desktop/Footer/Default" transform="translate(-96.000000, -648.000000)" fill="#1E2121">
            <g id="Footer">
                <g id="KT-logo" transform="translate(96.000000, 648.000000)">
                    <path d="M29.9591172,1.20529707 L29.9591172,1.07839331 C29.9591172,0.444125523 29.5163975,2.51046025e-05 28.820749,2.51046025e-05 L28.7955188,2.51046025e-05 C28.0997448,2.51046025e-05 27.6571506,0.444125523 27.6571506,1.07839331 L27.6571506,1.20529707 C27.6571506,1.83969038 28.0997448,2.28366527 28.7955188,2.28366527 L28.820749,2.28366527 C29.5163975,2.28366527 29.9591172,1.83969038 29.9591172,1.20529707 Z M29.7694519,1.20529707 C29.7694519,1.73174059 29.396272,2.09337238 28.820749,2.09337238 L28.7955188,2.09337238 C28.2199958,2.09337238 27.8468159,1.73174059 27.8468159,1.20529707 L27.8468159,1.07839331 C27.8468159,0.551949791 28.2199958,0.190317992 28.7955188,0.190317992 L28.820749,0.190317992 C29.396272,0.190317992 29.7694519,0.551949791 29.7694519,1.07839331 L29.7694519,1.20529707 Z M29.2761464,0.945213389 L29.2761464,0.919857741 C29.2761464,0.678728033 29.1179874,0.520192469 28.8777364,0.520192469 L28.4792008,0.520192469 C28.4350167,0.520192469 28.4160628,0.539271967 28.4160628,0.58358159 L28.4160628,1.64927197 C28.4160628,1.69370711 28.4350167,1.71278661 28.4792008,1.71278661 L28.5488661,1.71278661 C28.5930502,1.71278661 28.6120042,1.69370711 28.6120042,1.64927197 L28.6120042,1.36383264 C28.6120042,1.31952301 28.6310837,1.30044351 28.6752678,1.30044351 L28.8334268,1.30044351 C28.8586569,1.30044351 28.8777364,1.31312134 28.8902887,1.33847699 L29.0357699,1.67475314 C29.0484477,1.70010879 29.0674017,1.71278661 29.0927573,1.71278661 L29.1939289,1.71278661 C29.2507908,1.71278661 29.2761464,1.67475314 29.2507908,1.62391632 L29.0927573,1.30684519 C29.0800795,1.27508787 29.0863556,1.24973222 29.1117113,1.23065272 C29.1939289,1.1672636 29.2761464,1.04676151 29.2761464,0.945213389 Z M29.0736778,0.919857741 C29.0736778,1.03395816 28.9914603,1.12282845 28.8777364,1.12282845 L28.6752678,1.12282845 C28.6310837,1.12282845 28.6120042,1.10374895 28.6120042,1.05943933 L28.6120042,0.761196653 C28.6120042,0.716887029 28.6310837,0.697807531 28.6752678,0.697807531 L28.8777364,0.697807531 C28.9914603,0.697807531 29.0736778,0.786677824 29.0736778,0.900778243 L29.0736778,0.919857741 Z" id="Fill-1"></path>
                    <path d="M21.4669456,2.51046025e-05 L12.9776987,2.51046025e-05 L3.65912134,6.57630126 L3.65912134,0.732577406 C3.65912134,0.329899582 3.32748954,2.51046025e-05 2.91715481,2.51046025e-05 L0.00175732218,2.51046025e-05 L0.00175732218,12.5367615 L5.09949791,8.94015063 C6.38711297,8.02923013 8.16778243,8.33324686 9.07569038,9.60830962 L13.7325941,16.1237071 C13.9987029,16.5057992 14.4440586,16.7573473 14.9457741,16.7573473 L18.6079079,16.7573473 L12.0176987,7.50027615 C11.4105439,6.65437657 10.5594979,6.08186611 9.60364017,5.7349205 L13.8369038,2.75425105 L20.1527197,2.75425105 C21.7326778,2.75425105 23.0032218,4.02115481 23.0032218,5.58768201 C23.0032218,5.58768201 23.0117573,15.9939163 23.0117573,16.0200251 C23.0117573,16.4275983 23.3387448,16.7573473 23.7445607,16.7573473 L27.0138075,16.7573473 L27.0138075,5.58768201 C27.0138075,2.52040167 24.5349791,0.0432050209 21.4669456,2.51046025e-05" id="Fill-19"></path>
                </g>
            </g>
        </g>
    </g>
</svg>