<?xml version="1.0" encoding="UTF-8"?>
<svg width="58px" height="11px" viewBox="0 0 58 11" version="1.1" xmlns="http://www.w3.org/2000/svg" xmlns:xlink="http://www.w3.org/1999/xlink">
    <!-- Generator: sketchtool 49.2 (51160) - http://www.bohemiancoding.com/sketch -->
    <title>25CD6B9B-23A1-4A61-866D-1C0F22A813A1</title>
    <desc>Created with sketchtool.</desc>
    <defs></defs>
    <g id="Symbols" stroke="none" stroke-width="1" fill="none" fill-rule="evenodd">
        <g id="Desktop/Footer/Email-sign-up" transform="translate(-1223.000000, -653.000000)" fill="#97999B">
            <g id="Footer">
                <g id="Payment-logos" transform="translate(1097.000000, 652.000000)">
                    <g id="001-mastercard" transform="translate(126.886076, 1.569620)">
                        <path d="M12.2034988,1.7382228 C10.8955937,1.7382228 9.89142005,2.15838408 9.89142005,2.15838408 L9.61248293,3.81724308 C9.61248293,3.81724308 10.441546,3.47800175 11.6952134,3.47800175 C12.4096023,3.47800175 12.930285,3.5558094 12.930285,4.13936674 C12.930285,4.49261345 12.8698486,4.62021799 12.8698486,4.62021799 C12.8698486,4.62021799 12.3057757,4.57820186 12.0469841,4.57820186 C10.3873083,4.57820186 8.65014988,5.28313912 8.65014988,7.42284937 C8.65014988,9.10660682 9.78759345,9.49564505 10.4973334,9.49564505 C11.8470792,9.49564505 12.4343967,8.61330635 12.4638401,8.61330635 L12.3972051,9.34314206 L14.0863243,9.34314206 L14.8363552,4.05533448 C14.8301566,1.80513737 12.8822458,1.7382228 12.2034988,1.7382228 Z M11.2597616,7.88502679 C10.6662454,7.88502679 10.5143796,7.42907399 10.5143796,7.15519107 C10.5143796,6.6323237 10.7995153,6.00052562 12.1973002,6.00052562 C12.5242765,6.00052562 12.5614681,6.03009252 12.6157059,6.04254174 C12.6513478,6.3646654 12.4158009,7.88502679 11.2597616,7.88502679 Z M17.2398634,4.13314213 C17.2398634,5.09484462 19.5163002,4.6264426 19.5163002,7.0089127 C19.5163002,9.56255962 17.0523557,9.45207277 16.6231024,9.45207277 C15.0176644,9.45207277 14.5217762,9.23421136 14.4799356,9.22176214 L14.7340783,7.53800469 C14.7340783,7.52555547 15.538347,7.82900528 16.4355947,7.82900528 C16.9500787,7.82900528 17.6148788,7.78076454 17.6148788,7.16141569 C17.6148788,6.23083625 15.2237679,6.45647842 15.2237679,4.2560782 C15.2237679,2.31555553 16.6587444,1.75067202 18.0751251,1.75067202 C19.1645295,1.75067202 19.8370779,1.8969504 19.8370779,1.8969504 L19.5953324,3.59315707 C19.5953324,3.59315707 18.5601657,3.50756866 18.2936258,3.50756866 C17.6086802,3.50756866 17.2398634,3.66007164 17.2398634,4.13314213 Z M21.7803398,7.05715344 C21.7369496,7.31858713 21.8097831,7.67805845 22.4761329,7.67805845 C22.6450448,7.67805845 22.8387512,7.6235931 22.9720211,7.6235931 L22.7302756,9.25132904 C22.5365693,9.30735055 21.9910923,9.50186966 21.2952991,9.50809427 C20.4057996,9.51898734 19.7704429,9.0147938 19.7704429,7.87880218 C19.7704429,7.1178434 20.8598473,0.838766418 20.9016879,0.796750289 L22.8155064,0.796750289 L22.6218001,1.92184884 L23.5717359,1.92184884 L23.3299904,3.72698622 L22.3180685,3.72698622 L21.7803398,7.05715344 Z M29.1582265,6.26818392 C29.1582265,6.26818392 29.4139188,5.02170544 29.4139188,4.51751189 C29.4139188,3.24613497 28.783211,1.70243128 26.6834344,1.70243128 C24.7587683,1.70865589 23.336189,3.78767618 23.336189,6.13902322 C23.336189,8.85762236 25.1213866,9.50186966 26.6400442,9.50186966 C28.0455773,9.50186966 28.6623383,9.18597062 28.6623383,9.18597062 L29.0017118,7.33103635 C29.0017118,7.33103635 27.9309032,7.80566299 26.9670205,7.80566299 C24.915283,7.80566299 25.2732523,6.26818392 25.2732523,6.26818392 L29.1582265,6.26818392 Z M26.689633,3.42820486 C27.7728388,3.42820486 27.5729339,4.64511643 27.5729339,4.74159791 L25.4483628,4.74159791 C25.4483628,4.62021799 25.6482678,3.42820486 26.689633,3.42820486 Z M9.33974442,0.206968337 L7.82728539,9.35559129 L5.87162628,9.35559129 L6.96103068,2.45560929 L4.50328476,9.35559129 L3.18453207,9.35559129 L3.0140705,2.45560929 L1.84563391,9.35559129 L6.67910172e-13,9.35559129 L1.53105483,0.206968337 L4.32197564,0.206968337 L4.42580223,5.81689957 L6.30707811,0.206968337 L9.33974442,0.206968337 Z M34.0256791,1.84870966 C33.7715364,2.37157703 33.5468371,2.84464752 33.3112902,4.07867677 C31.9863389,3.60560629 31.8825123,6.18882012 31.3261877,9.36804051 L29.3581314,9.36804051 L30.557561,1.92184884 L32.3365599,1.92184884 L32.167648,3.00337511 C32.167648,3.00337511 32.7968062,1.83003582 33.6568623,1.83003582 C33.9048064,1.82381121 34.0256791,1.84870966 34.0256791,1.84870966 Z M37.5666309,7.62981771 C38.2143848,7.62981771 39.1472745,7.16141569 39.1472745,7.16141569 L38.807901,9.25132904 C38.807901,9.25132904 37.778933,9.51898734 37.131179,9.51898734 C34.8485436,9.51898734 33.6925043,7.93326753 33.6925043,5.5383482 C33.6925043,1.9265173 35.8418697,-6.39488462e-14 38.0454729,-6.39488462e-14 C39.0434479,-6.39488462e-14 40.1994873,0.468402025 40.1994873,0.468402025 L39.8911068,2.50540618 C39.8911068,2.50540618 39.1038843,1.95764036 38.1353526,1.95764036 C36.8351958,1.95764036 35.6667592,3.20411884 35.6667592,5.47143363 C35.6667592,6.59030757 36.2106865,7.62981771 37.5666309,7.62981771 Z M56.2476693,8.29740731 C56.1500414,8.34564805 56.0787574,8.41878724 56.0291686,8.51060026 C55.9749308,8.60708174 55.9516861,8.70511937 55.9516861,8.80160085 C55.9516861,8.9058631 55.9749308,9.00234458 56.0291686,9.0941576 C56.0787574,9.18597062 56.1500414,9.25755365 56.2414707,9.31357516 C56.3390987,9.3618159 56.4289785,9.38515819 56.5328051,9.38515819 C56.6288834,9.38515819 56.7265114,9.3618159 56.8163911,9.31357516 C56.9140191,9.25755365 56.9806541,9.18597062 57.0348919,9.0941576 C57.0891296,9.00234458 57.1139241,8.9058631 57.1139241,8.80160085 C57.1139241,8.69889476 57.082931,8.60241328 57.0348919,8.51060026 C56.9806541,8.41878724 56.9078205,8.34564805 56.8163911,8.29740731 C56.7265114,8.24294196 56.6288834,8.21804351 56.5328051,8.21804351 C56.4351771,8.21804351 56.3390987,8.24294196 56.2476693,8.29740731 Z M56.9496611,8.558841 C56.9915016,8.6382048 57.0162961,8.71756859 57.0162961,8.80160085 C57.0162961,8.88096465 56.9977003,8.96655306 56.9496611,9.03969225 C56.9140191,9.11905604 56.8535827,9.17974601 56.7745506,9.22176214 C56.6955184,9.26377826 56.6164862,9.28867671 56.5328051,9.28867671 C56.4475743,9.28867671 56.3685421,9.26377826 56.2957085,9.22176214 C56.2166763,9.17974601 56.15624,9.11905604 56.1143994,9.03969225 C56.0663602,8.96655306 56.0477644,8.88096465 56.0477644,8.80160085 C56.0477644,8.71756859 56.0663602,8.6382048 56.1143994,8.558841 C56.15624,8.4794772 56.2166763,8.41878724 56.2957085,8.37677111 C56.3747407,8.33475498 56.4537729,8.31608114 56.5328051,8.31608114 C56.6164862,8.31608114 56.6955184,8.33475498 56.768352,8.37677111 C56.8473841,8.41878724 56.9078205,8.4794772 56.9496611,8.558841 Z M49.1828121,6.34599156 C49.1828121,7.9208183 49.963836,9.46452199 51.5568768,9.46452199 C52.700519,9.46452199 53.3358758,8.66310324 53.3358758,8.66310324 L53.250645,9.34936667 L55.1148747,9.34936667 L56.5746456,0.213192948 L54.6561781,0.213192948 L54.2439711,2.78395755 C54.2439711,2.78395755 53.5233835,1.78801969 52.3983371,1.78801969 C50.642583,1.78801969 49.1828121,3.90905611 49.1828121,6.34599156 Z M53.765129,5.22867377 C53.765129,6.24328547 53.2692408,7.59869465 52.2278756,7.59869465 C51.5444796,7.59869465 51.2175034,7.01513731 51.2175034,6.10945632 C51.2175034,4.61399337 51.8838531,3.63517319 52.7253134,3.63517319 C53.414908,3.63517319 53.765129,4.10979983 53.765129,5.22867377 Z M56.2771127,8.49815103 L56.2771127,9.1237245 L56.3809393,9.1237245 L56.3809393,8.85762236 L56.4351771,8.85762236 C56.470819,8.85762236 56.501812,8.86229081 56.5204079,8.88096465 C56.5436526,8.89963848 56.5808442,8.94787922 56.6226848,9.02724302 L56.6769226,9.1237245 L56.8039939,9.1237245 L56.7265114,9.00234458 C56.6893198,8.94165461 56.6598764,8.9058631 56.635082,8.87474004 C56.6226848,8.86229081 56.604089,8.85139774 56.5808442,8.84517313 C56.635082,8.84517313 56.6769226,8.82027469 56.7141142,8.79070778 C56.7435575,8.75336011 56.7621534,8.71134398 56.7621534,8.6677717 C56.7621534,8.6382048 56.7497561,8.60708174 56.7311603,8.57751483 C56.7141142,8.54639177 56.6831212,8.52927409 56.6536778,8.51682487 C56.6226848,8.50437565 56.568447,8.49815103 56.4956134,8.49815103 L56.2771127,8.49815103 Z M56.635082,8.62575557 C56.6474792,8.64442941 56.6536778,8.65687863 56.6536778,8.67399631 C56.6536778,8.70511937 56.6412806,8.73001782 56.6226848,8.7471355 C56.59944,8.76580933 56.5622484,8.77203395 56.501812,8.77203395 L56.3809393,8.77203395 L56.3809393,8.58373944 L56.4956134,8.58373944 C56.5436526,8.58373944 56.5746456,8.58373944 56.59944,8.58996406 C56.6102876,8.60241328 56.6288834,8.60708174 56.635082,8.62575557 Z M43.221306,1.7382228 C41.9072023,1.7382228 40.9030287,2.15838408 40.9030287,2.15838408 L40.6240916,3.81724308 C40.6240916,3.81724308 41.4531547,3.47800175 42.7130206,3.47800175 C43.421211,3.47800175 43.9465425,3.5558094 43.9465425,4.13936674 C43.9465425,4.49261345 43.8799076,4.62021799 43.8799076,4.62021799 C43.8799076,4.62021799 43.3173844,4.57820186 43.0570431,4.57820186 C41.3989169,4.57820186 39.6679571,5.28313912 39.6679571,7.42284937 C39.6679571,9.10660682 40.8054007,9.49564505 41.513591,9.49564505 C42.8633367,9.49564505 43.4444557,8.61330635 43.4754488,8.61330635 L43.4088138,9.34314206 L45.097933,9.34314206 L45.8479639,4.05533448 C45.8479639,1.80513737 43.8985034,1.7382228 43.221306,1.7382228 Z M42.2760192,7.88502679 C41.682503,7.88502679 41.5321868,7.42907399 41.5321868,7.15519107 C41.5321868,6.6323237 41.8157729,6.00052562 43.2151074,6.00052562 C43.5420837,6.00052562 43.5777257,6.03009252 43.6319635,6.04254174 C43.6691551,6.3646654 43.4320585,7.88502679 42.2760192,7.88502679 Z M49.3765184,4.07867677 C48.0515671,3.60560629 47.9477405,6.18882012 47.3852173,9.36804051 L45.4249093,9.36804051 L46.6165906,1.92184884 L48.4017881,1.92184884 L48.2328762,3.00337511 C48.2328762,3.00337511 48.868233,1.82381121 49.7220905,1.82381121 C49.9700346,1.82381121 50.0909073,1.85493427 50.0909073,1.85493427 C49.8367646,2.37157703 49.6136149,2.84464752 49.3765184,4.07867677 Z" id="Master-Card"></path>
                    </g>
                </g>
            </g>
        </g>
    </g>
</svg>