<?xml version="1.0" encoding="UTF-8"?>
<svg width="39px" height="34px" viewBox="0 0 39 34" version="1.1" xmlns="http://www.w3.org/2000/svg" xmlns:xlink="http://www.w3.org/1999/xlink">
    <!-- Generator: sketchtool 49.2 (51160) - http://www.bohemiancoding.com/sketch -->
    <title>49961B6A-CC3C-4A16-91C5-938798B93F5E</title>
    <desc>Created with sketchtool.</desc>
    <defs>
        <polygon id="path-1" points="0.00570731707 0.0255791132 38.9621415 0.0255791132 38.9621415 33.8031285 0.00570731707 33.8031285"></polygon>
    </defs>
    <g id="Symbols" stroke="none" stroke-width="1" fill="none" fill-rule="evenodd">
        <g id="Desktop/Footer/Default" transform="translate(-1180.000000, -51.000000)">
            <g id="Footer">
                <g id="USPs-footer" transform="translate(141.000000, 38.000000)">
                    <g id="USPs-Footer" transform="translate(72.000000, 0.000000)">
                        <g id="Desktop/Icons/USPs-4" transform="translate(957.000000, 0.000000)">
                            <g id="001-credit-card" transform="translate(10.000000, 13.000000)">
                                <g id="Group-3">
                                    <mask id="mask-2" fill="white">
                                        <use xlink:href="#path-1"></use>
                                    </mask>
                                    <g id="Clip-2"></g>
                                    <path d="M33.8600854,0.0255791132 L5.10129512,0.0255791132 C2.28882439,0.0259566647 0,2.29683447 0,5.08826138 L0,21.5183582 C0,24.3097851 2.28882439,26.5810405 5.10167561,26.5810405 L20.3457293,26.5810405 L20.3457293,31.0124566 C20.3457293,32.5514509 21.607522,33.8031285 23.1588659,33.8031285 L31.6380366,33.8031285 C33.189,33.8031285 34.4501268,32.5510733 34.4501268,31.0124566 L34.4501268,26.5441348 C36.9856976,26.2528538 38.9621415,24.1114762 38.9621415,21.5183582 L38.9621415,5.08826138 C38.9621415,2.29683447 36.673222,0.0255791132 33.8600854,0.0255791132 Z M32.9608976,31.0124566 C32.9608976,31.7369779 32.3678122,32.3253919 31.6380366,32.3253919 L23.1581049,32.3253919 C22.4283293,32.3253919 21.8341976,31.7369779 21.8341976,31.0124566 L21.8341976,23.1318245 L32.9608976,23.1318245 L32.9608976,31.0124566 Z M24.3652976,21.6544655 L24.3652976,18.8515233 C24.3652976,17.2941234 25.7256366,16.0272494 27.3976902,16.0272494 C29.0694585,16.0272494 30.429322,17.2941234 30.429322,18.8515233 L30.429322,21.6544655 L24.3652976,21.6544655 Z M37.473578,21.5191133 C37.473578,23.2951155 36.161561,24.7629413 34.4505073,25.0445947 L34.4505073,22.3933338 C34.4505073,21.9851062 34.1175805,21.6547487 33.7062732,21.6547487 L31.9190268,21.6547487 L31.9190268,18.8519008 C31.9190268,16.480028 29.8913122,14.5498904 27.3980707,14.5498904 C24.9052098,14.5498904 22.8764488,16.4796504 22.8764488,18.8519008 L22.8764488,21.6547487 L21.0903439,21.6547487 C20.6790366,21.6547487 20.3461098,21.9851062 20.3461098,22.3933338 L20.3461098,25.1039647 L5.10167561,25.1039647 C3.10963171,25.1039647 1.48922927,23.4956897 1.48922927,21.5191133 L1.48922927,11.5560015 L37.473578,11.5560015 L37.473578,21.5191133 Z M37.473578,10.0786425 L1.48884878,10.0786425 L1.48884878,7.55707055 L37.4731976,7.55707055 L37.4731976,10.0786425 L37.473578,10.0786425 Z M37.473578,6.07971159 L1.48884878,6.07971159 L1.48884878,5.08863893 C1.48884878,3.11159057 3.10934634,1.50369318 5.10167561,1.50369318 L33.8604659,1.50369318 C35.8524146,1.50369318 37.473578,3.11196813 37.473578,5.08863893 L37.473578,6.07971159 Z" id="Fill-1" fill="#000000" mask="url(#mask-2)"></path>
                                </g>
                                <path d="M5.22321774,22.3770492 L17.1534491,22.3770492 C17.5671138,22.3770492 17.9016393,22.091117 17.9016393,21.7378683 C17.9016393,21.3842928 17.5671138,21.0983607 17.1534491,21.0983607 L5.22321774,21.0983607 C4.80993536,21.0983607 4.47540984,21.3842928 4.47540984,21.7378683 C4.47540984,22.091117 4.80955304,22.3770492 5.22321774,22.3770492 Z" id="Fill-4" fill="#000000"></path>
                                <path d="M26.6978651,28.9367591 L26.6978651,30.5877995 C26.6978651,30.9968474 27.052845,31.3278689 27.4913974,31.3278689 C27.9303554,31.3278689 28.2853353,30.9968474 28.2853353,30.5877995 L28.2853353,28.9367591 C29.3059533,28.62314 30.0491799,27.7360971 30.0491799,26.6809899 C30.0499913,25.3650378 28.9022905,24.295082 27.4913974,24.295082 C26.0814171,24.295082 24.9344262,25.3654161 24.9344262,26.6809899 C24.9344262,27.7360971 25.6777542,28.62314 26.6978651,28.9367591 Z M27.4913974,25.7758827 C28.0263014,25.7758827 28.4621153,26.1821879 28.4621153,26.6809899 C28.4621153,27.179319 28.0263014,27.5857188 27.4913974,27.5857188 C26.9570004,27.5857188 26.5219979,27.1796974 26.5219979,26.6809899 C26.5219979,26.1821879 26.9570004,25.7758827 27.4913974,25.7758827 Z" id="Fill-5" fill="#000000"></path>
                            </g>
                        </g>
                    </g>
                </g>
            </g>
        </g>
    </g>
</svg>