<?xml version="1.0" encoding="UTF-8"?>
<svg width="59px" height="14px" viewBox="0 0 59 14" version="1.1" xmlns="http://www.w3.org/2000/svg" xmlns:xlink="http://www.w3.org/1999/xlink">
    <!-- Generator: Sketch 50 (54983) - http://www.bohemiancoding.com/sketch -->
    <title>Secure Payment</title>
    <desc>Created with Sketch.</desc>
    <defs></defs>
    <g id="Symbols" stroke="none" stroke-width="1" fill="none" fill-rule="evenodd">
        <g id="Desktop/Footer/Email-sign-up" transform="translate(-1019.000000, -651.000000)" fill="#97999B">
            <g id="Footer">
                <g id="Payment-logos" transform="translate(1019.000000, 651.000000)">
                    <g id="Secure-Payment">
                        <path d="M20.4804688,4.22265625 C20.5169273,4.4856784 20.5885411,4.68229102 20.6953125,4.8125 C20.890626,5.04948035 21.225258,5.16796875 21.6992188,5.16796875 C21.9830743,5.16796875 22.2135408,5.13671906 22.390625,5.07421875 C22.7265642,4.95442648 22.8945312,4.73177246 22.8945312,4.40625 C22.8945312,4.21614488 22.8111987,4.06901094 22.6445312,3.96484375 C22.4778638,3.86328074 22.2161476,3.77343789 21.859375,3.6953125 L21.25,3.55859375 C20.6510387,3.42317641 20.2369803,3.27604246 20.0078125,3.1171875 C19.6197897,2.85156117 19.4257812,2.43620074 19.4257812,1.87109375 C19.4257812,1.35546617 19.6132794,0.927085039 19.9882812,0.5859375 C20.3632831,0.244789961 20.9140589,0.07421875 21.640625,0.07421875 C22.2473989,0.07421875 22.7649718,0.235024434 23.1933594,0.556640625 C23.6217469,0.878256816 23.8463541,1.34504902 23.8671875,1.95703125 L22.7109375,1.95703125 C22.6901041,1.61067535 22.5390639,1.36458406 22.2578125,1.21875 C22.0703116,1.12239535 21.837241,1.07421875 21.5585938,1.07421875 C21.2486964,1.07421875 21.001303,1.13671812 20.8164062,1.26171875 C20.6315095,1.38671938 20.5390625,1.5611968 20.5390625,1.78515625 C20.5390625,1.99088645 20.6302074,2.14453074 20.8125,2.24609375 C20.9296881,2.31380242 21.1796856,2.39322871 21.5625,2.484375 L22.5546875,2.72265625 C22.9895855,2.82682344 23.3177072,2.96614496 23.5390625,3.140625 C23.8828142,3.41145969 24.0546875,3.80338285 24.0546875,4.31640625 C24.0546875,4.84245055 23.8535176,5.27929514 23.4511719,5.62695312 C23.0488261,5.97461111 22.4804724,6.1484375 21.7460938,6.1484375 C20.99609,6.1484375 20.4062521,5.97721525 19.9765625,5.63476562 C19.5468729,5.292316 19.3320312,4.82161758 19.3320312,4.22265625 L20.4804688,4.22265625 Z M29.203125,1.26171875 L26.15625,1.26171875 L26.15625,2.484375 L28.953125,2.484375 L28.953125,3.484375 L26.15625,3.484375 L26.15625,4.96484375 L29.34375,4.96484375 L29.34375,6 L24.9804688,6 L24.9804688,0.2421875 L29.203125,0.2421875 L29.203125,1.26171875 Z M30.8398438,0.84375 C31.3085961,0.369789297 31.9049443,0.1328125 32.6289062,0.1328125 C33.5976611,0.1328125 34.3059873,0.450517656 34.7539062,1.0859375 C35.0013033,1.44271012 35.1341145,1.80077945 35.1523438,2.16015625 L33.9492188,2.16015625 C33.8710934,1.8841132 33.7708339,1.67578195 33.6484375,1.53515625 C33.4296864,1.285155 33.1054709,1.16015625 32.6757812,1.16015625 C32.2382791,1.16015625 31.8932304,1.33658678 31.640625,1.68945312 C31.3880196,2.04231947 31.2617188,2.54166344 31.2617188,3.1875 C31.2617188,3.83333656 31.395181,4.31705568 31.6621094,4.63867188 C31.9290378,4.96028807 32.2682271,5.12109375 32.6796875,5.12109375 C33.1015646,5.12109375 33.423176,4.9830743 33.6445312,4.70703125 C33.7669277,4.55859301 33.8684892,4.33593898 33.9492188,4.0390625 L35.140625,4.0390625 C35.0364578,4.6666698 34.7701844,5.17708137 34.3417969,5.5703125 C33.9134093,5.96354363 33.3645867,6.16015625 32.6953125,6.16015625 C31.8671834,6.16015625 31.2161482,5.89453391 30.7421875,5.36328125 C30.2682268,4.82942441 30.03125,4.0976609 30.03125,3.16796875 C30.03125,2.16275539 30.3007786,1.38802355 30.8398438,0.84375 Z M36.0585938,0.2421875 L37.28125,0.2421875 L37.28125,3.78125 C37.28125,4.17708531 37.3281245,4.46614492 37.421875,4.6484375 C37.5677091,4.97135578 37.8854142,5.1328125 38.375,5.1328125 C38.8619816,5.1328125 39.1783847,4.97135578 39.3242188,4.6484375 C39.4179692,4.46614492 39.4648438,4.17708531 39.4648438,3.78125 L39.4648438,0.2421875 L40.6875,0.2421875 L40.6875,3.78125 C40.6875,4.39323223 40.5924489,4.86978996 40.4023438,5.2109375 C40.0481753,5.83594062 39.3724008,6.1484375 38.375,6.1484375 C37.3775992,6.1484375 36.7005226,5.83594062 36.34375,5.2109375 C36.1536449,4.86978996 36.0585938,4.39323223 36.0585938,3.78125 L36.0585938,0.2421875 Z M43.0390625,1.2421875 L43.0390625,2.7890625 L44.4023438,2.7890625 C44.6731784,2.7890625 44.8763014,2.75781281 45.0117188,2.6953125 C45.2513033,2.58593695 45.3710938,2.36979328 45.3710938,2.046875 C45.3710938,1.69791492 45.2552095,1.46354227 45.0234375,1.34375 C44.8932285,1.27604133 44.697918,1.2421875 44.4375,1.2421875 L43.0390625,1.2421875 Z M45.6191406,0.390625 C45.8365896,0.481771289 46.0208326,0.615884531 46.171875,0.79296875 C46.2968756,0.938802813 46.395833,1.10025953 46.46875,1.27734375 C46.541667,1.45442797 46.578125,1.65624887 46.578125,1.8828125 C46.578125,2.15625137 46.5091153,2.42512889 46.3710938,2.68945312 C46.2330722,2.95377736 46.0052099,3.14062445 45.6875,3.25 C45.9531263,3.35677137 46.1412755,3.50846256 46.2519531,3.70507812 C46.3626308,3.90169369 46.4179688,4.2018209 46.4179688,4.60546875 L46.4179688,4.9921875 C46.4179688,5.25520965 46.4283853,5.43359328 46.4492188,5.52734375 C46.4804689,5.67578199 46.5533848,5.7851559 46.6679688,5.85546875 L46.6679688,6 L45.34375,6 C45.3072915,5.8723952 45.2812501,5.76953164 45.265625,5.69140625 C45.2343748,5.52994711 45.2174479,5.36458418 45.2148438,5.1953125 L45.2070312,4.66015625 C45.2018229,4.29296691 45.1347663,4.0481777 45.0058594,3.92578125 C44.8769525,3.8033848 44.6354184,3.7421875 44.28125,3.7421875 L43.0390625,3.7421875 L43.0390625,6 L41.8632812,6 L41.8632812,0.2421875 L44.6875,0.2421875 C45.0911479,0.250000039 45.4016916,0.299478711 45.6191406,0.390625 Z M51.8710938,1.26171875 L48.8242188,1.26171875 L48.8242188,2.484375 L51.6210938,2.484375 L51.6210938,3.484375 L48.8242188,3.484375 L48.8242188,4.96484375 L52.0117188,4.96484375 L52.0117188,6 L47.6484375,6 L47.6484375,0.2421875 L51.8710938,0.2421875 L51.8710938,1.26171875 Z M22.6152344,9.43359375 C22.4576815,9.30598895 22.2369806,9.2421875 21.953125,9.2421875 L20.8320312,9.2421875 L20.8320312,10.9375 L21.953125,10.9375 C22.2369806,10.9375 22.4576815,10.8684903 22.6152344,10.7304688 C22.7727872,10.5924472 22.8515625,10.3736994 22.8515625,10.0742188 C22.8515625,9.77473809 22.7727872,9.56119855 22.6152344,9.43359375 Z M23.5273438,11.5078125 C23.183592,11.7890639 22.6927115,11.9296875 22.0546875,11.9296875 L20.8320312,11.9296875 L20.8320312,14 L19.6367188,14 L19.6367188,8.2421875 L22.1445312,8.2421875 C22.7226591,8.2421875 23.183592,8.39062352 23.5273438,8.6875 C23.8710955,8.98437648 24.0429688,9.4440073 24.0429688,10.0664062 C24.0429688,10.7460971 23.8710955,11.2265611 23.5273438,11.5078125 Z M26.5195312,11.8242188 L27.9804688,11.8242188 L27.2617188,9.55859375 L26.5195312,11.8242188 Z M26.59375,8.2421875 L27.953125,8.2421875 L29.9921875,14 L28.6875,14 L28.3164062,12.8164062 L26.1953125,12.8164062 L25.796875,14 L24.5390625,14 L26.59375,8.2421875 Z M34.0078125,8.2421875 L35.3710938,8.2421875 L33.4453125,11.8359375 L33.4453125,14 L32.2421875,14 L32.2421875,11.8359375 L30.25,8.2421875 L31.6679688,8.2421875 L32.8632812,10.75 L34.0078125,8.2421875 Z M39.875,8.2421875 L41.6054688,8.2421875 L41.6054688,14 L40.484375,14 L40.484375,10.1054688 C40.484375,9.99348902 40.4856771,9.83658955 40.4882812,9.63476562 C40.4908854,9.4329417 40.4921875,9.2773443 40.4921875,9.16796875 L39.4023438,14 L38.234375,14 L37.1523438,9.16796875 C37.1523438,9.2773443 37.1536458,9.4329417 37.15625,9.63476562 C37.1588542,9.83658955 37.1601562,9.99348902 37.1601562,10.1054688 L37.1601562,14 L36.0390625,14 L36.0390625,8.2421875 L37.7890625,8.2421875 L38.8359375,12.7695312 L39.875,8.2421875 Z M46.9804688,9.26171875 L43.9335938,9.26171875 L43.9335938,10.484375 L46.7304688,10.484375 L46.7304688,11.484375 L43.9335938,11.484375 L43.9335938,12.9648438 L47.1210938,12.9648438 L47.1210938,14 L42.7578125,14 L42.7578125,8.2421875 L46.9804688,8.2421875 L46.9804688,9.26171875 Z M48.0390625,8.2421875 L49.3007812,8.2421875 L51.59375,12.2617188 L51.59375,8.2421875 L52.7148438,8.2421875 L52.7148438,14 L51.5117188,14 L49.1601562,9.91015625 L49.1601562,14 L48.0390625,14 L48.0390625,8.2421875 Z M58.0195312,8.2421875 L58.0195312,9.26171875 L56.296875,9.26171875 L56.296875,14 L55.0859375,14 L55.0859375,9.26171875 L53.3554688,9.26171875 L53.3554688,8.2421875 L58.0195312,8.2421875 Z" id="SECURE-PAYMENT"></path>
                        <path d="M2.74984685,3.49994802 C2.74984685,2.3420314 3.67510721,1.39993762 4.81233408,1.39993762 L6.18746171,1.39993762 C7.32448438,1.39993762 8.24994895,2.3420314 8.24994895,3.49994802 L8.24994895,6.99989604 L2.74984685,6.99989604 L2.74984685,3.49994802 Z M9.62487237,6.99989604 L9.62487237,3.49994802 C9.62487237,1.56689885 8.085971,0 6.18746171,0 L4.81233408,0 C2.91382479,0 1.37492342,1.56689885 1.37492342,3.49994802 L1.37492342,6.99989604 L0,6.99989604 L0,14 L4.81253829,14 L6.18766592,14 L10.9997958,14 L10.9997958,6.99989604 L9.62487237,6.99989604 Z" id="Lock"></path>
                    </g>
                </g>
            </g>
        </g>
    </g>
</svg>