<?xml version="1.0" encoding="UTF-8"?>
<svg width="43px" height="40px" viewBox="0 0 43 40" version="1.1" xmlns="http://www.w3.org/2000/svg" xmlns:xlink="http://www.w3.org/1999/xlink">
    <!-- Generator: sketchtool 49.2 (51160) - http://www.bohemiancoding.com/sketch -->
    <title>5CEA9894-193D-419D-A1DD-51BD5A602497</title>
    <desc>Created with sketchtool.</desc>
    <defs>
        <polygon id="path-1" points="0.00639880952 0.0956785714 23.8825967 0.0956785714 23.8825967 34.2813214 0.00639880952 34.2813214"></polygon>
    </defs>
    <g id="Symbols" stroke="none" stroke-width="1" fill="none" fill-rule="evenodd">
        <g id="Desktop/Footer/Default" transform="translate(-221.000000, -48.000000)">
            <g id="Footer">
                <g id="USPs-footer" transform="translate(141.000000, 38.000000)">
                    <g id="USPs-Footer" transform="translate(72.000000, 0.000000)">
                        <g id="Desktop/Icons/USPs-1">
                            <g id="003-transport" transform="translate(8.000000, 10.000000)">
                                <path d="M22.4553908,32.3809524 C21.138485,32.3809524 20.0666667,33.4492099 20.0666667,34.7620689 C20.0666667,36.0745996 21.138485,37.1428571 22.4553908,37.1428571 C23.7726261,37.1428571 24.8444444,36.0745996 24.8444444,34.7620689 C24.8444444,33.4492099 23.7726261,32.3809524 22.4553908,32.3809524 Z M22.4553908,35.5555191 C22.016166,35.5555191 21.6592959,35.1998345 21.6592959,34.7620689 C21.6592959,34.323975 22.016166,33.9682904 22.4553908,33.9682904 C22.8949451,33.9682904 23.2518152,34.323975 23.2518152,34.7620689 C23.2518152,35.1998345 22.8949451,35.5555191 22.4553908,35.5555191 Z" id="Fill-1" fill="#000000"></path>
                                <path d="M22.4554003,29.5238095 C19.5572792,29.5238095 17.2,31.8740828 17.2,34.7620595 C17.2,37.6497268 19.5572792,40 22.4554003,40 C25.3530036,40 27.7111111,37.6497268 27.7111111,34.7620595 C27.7111111,31.8740828 25.3530036,29.5238095 22.4554003,29.5238095 Z M22.4554003,38.5033866 C20.3855209,38.5033866 18.7016021,36.8250623 18.7016021,34.7620595 C18.7016021,32.6987473 20.3855209,31.0204229 22.4554003,31.0204229 C24.5255902,31.0204229 26.209509,32.6987473 26.209509,34.7620595 C26.209509,36.8250623 24.5255902,38.5033866 22.4554003,38.5033866 Z" id="Fill-2" fill="#000000"></path>
                                <g id="Group-6" transform="translate(0.000000, 0.952381)">
                                    <mask id="mask-2" fill="white">
                                        <use xlink:href="#path-1"></use>
                                    </mask>
                                    <g id="Clip-4"></g>
                                    <polygon id="Fill-3" fill="#000000" mask="url(#mask-2)" points="17.7883705 34.2813214 19.3351761 34.2813214 19.3351761 21.0726429 17.7883705 21.0726429"></polygon>
                                    <path d="M9.2887252,2.13557143 C8.6150372,0.880392857 7.31405258,0.099 5.89351687,0.0956785714 L0,0.0956785714 L0,1.64967857 L5.89181052,1.64967857 C6.74327877,1.65214286 7.52276042,2.12046429 7.92727183,2.87421429 L22.52125,29.9914286 L23.8825967,29.2519286 L9.2887252,2.13557143 Z" id="Fill-5" fill="#000000" mask="url(#mask-2)"></path>
                                </g>
                                <polygon id="Fill-7" fill="#000000" points="27.7111111 34.8813838 42.2977884 26.6666667 43 27.975347 28.4134233 36.1904762"></polygon>
                                <path d="M32.3931091,12.8112651 L25.7036538,0.396528885 C25.6072294,0.216361736 25.4466587,0.0847669651 25.2561667,0.0295613541 C25.0660846,-0.0272490712 24.8639111,-0.0013580676 24.6913514,0.100173182 L12.8008194,7.08443189 C12.4434036,7.29466256 12.3165456,7.76818976 12.5178994,8.14136257 L19.2072522,20.5569547 C19.3036766,20.7366939 19.4649646,20.8687166 19.6547393,20.9239222 C19.7208325,20.9423241 19.7884628,20.952381 19.8552734,20.952381 C19.9817215,20.952381 20.1070425,20.9184659 20.2195547,20.8515986 L32.1100866,13.8681958 C32.4683222,13.6579651 32.5943605,13.1844379 32.3931091,12.8112651 Z M20.1374761,19.11979 L14.1769933,8.05652139 L24.77302,1.8325167 L30.7330929,12.8965343 L20.1374761,19.11979 Z" id="Fill-8" fill="#000000"></path>
                                <path d="M23.787603,6.50389786 L21.893188,3.23517247 C21.6842874,2.87402818 21.2200058,2.74962131 20.8585033,2.95856239 L17.5784507,4.84590307 C17.2166348,5.05453182 17.0925479,5.51572214 17.3014485,5.87728285 L19.1950279,9.14642467 C19.3354091,9.38878383 19.5895367,9.52380952 19.8519158,9.52380952 C19.9804941,9.52380952 20.111057,9.49122429 20.2297125,9.42251422 L23.5100785,7.53517354 C23.6843016,7.43554394 23.8116266,7.27084799 23.8630161,7.0768982 C23.9148234,6.88294841 23.8883975,6.6767141 23.787603,6.50389786 Z M20.128918,7.73776414 L18.993021,5.77640398 L20.9608646,4.643833 L22.0971794,6.60519316 L20.128918,7.73776414 Z" id="Fill-9" fill="#000000"></path>
                                <path d="M39.0819668,25.1919144 L32.3922473,12.776716 C32.1912955,12.4035293 31.7389744,12.2701108 31.3807247,12.4812052 L19.4897233,19.464975 C19.1322933,19.6751065 19.0054303,20.1486513 19.2067921,20.521838 L25.896409,32.9378924 C25.9928372,33.1176383 26.1537217,33.2496659 26.3439138,33.3048736 C26.4099071,33.3232761 26.4768228,33.3333333 26.5444557,33.3333333 C26.6709089,33.3333333 26.7962348,33.299845 26.9071119,33.2334032 L38.7989331,26.2488845 C38.9713971,26.1476704 39.0975428,25.9801216 39.1504195,25.7816521 C39.2031937,25.5839317 39.1792148,25.3712324 39.0819668,25.1919144 Z M26.8274894,31.5006742 L20.8667713,20.4369937 L31.4632164,14.2135062 L37.4239345,25.2771867 L26.8274894,31.5006742 Z" id="Fill-10" fill="#000000"></path>
                                <path d="M31.4318718,17.9322684 L29.5377771,14.6637763 C29.3281346,14.3022414 28.8637247,14.1782598 28.5030393,14.3872901 L25.2233403,16.2748084 C24.8609836,16.4830058 24.7369947,16.9441632 24.945906,17.3061145 L26.8394784,20.5746066 C26.9798668,20.8169485 27.2345297,20.952381 27.4965045,20.952381 C27.6254028,20.952381 27.7555546,20.919798 27.8743206,20.8510929 L31.1544375,18.9634705 C31.5167942,18.755273 31.6407831,18.2942197 31.4318718,17.9322684 Z M27.7731031,19.1660466 L26.6367299,17.2048265 L28.6046747,16.0723363 L29.7410479,18.0335565 L27.7731031,19.1660466 Z" id="Fill-11" fill="#000000"></path>
                            </g>
                        </g>
                    </g>
                </g>
            </g>
        </g>
    </g>
</svg>