<?xml version="1.0" encoding="UTF-8"?>
<svg width="18px" height="14px" viewBox="0 0 18 14" version="1.1" xmlns="http://www.w3.org/2000/svg" xmlns:xlink="http://www.w3.org/1999/xlink">
    <!-- Generator: sketchtool 49.3 (51167) - http://www.bohemiancoding.com/sketch -->
    <title>468B7991-BAFA-4458-94E1-876270E60931</title>
    <desc>Created with sketchtool.</desc>
    <defs></defs>
    <g id="Symbols" stroke="none" stroke-width="1" fill="none" fill-rule="evenodd">
        <g id="Desktop/Icons/Truck-2" fill="#695A5D">
            <path d="M10.4916798,8.61538462 L10.4916798,1.36051282 C10.4916798,1.204 10.359798,1.07692308 10.1973673,1.07692308 L1.41195463,1.07692308 C1.24952397,1.07692308 1.11764219,1.204 1.11764219,1.36051282 L1.11764219,8.61538462 M6.07848332,11.2071795 L10.4916798,11.2071795 L10.4916798,7.53846154 L6.03526782,7.53846154 L1.11764219,7.53846154 L1.11764219,10.9235897 C1.11764219,11.0801026 1.24952397,11.2071795 1.41195463,11.2071795 L1.53340508,11.2071795 C1.78450203,10.2228718 2.70841957,9.4905641 3.8059442,9.4905641 C4.90346883,9.4905641 5.82738637,10.2228718 6.07848332,11.2071795 M16.5180065,11.2071795 L16.8823578,11.2071795 L16.8823578,5.7105641 C16.8823578,5.64020513 16.8555344,5.5734359 16.8063581,5.52102564 L14.3311532,2.89835897 C14.2760162,2.84020513 14.1970362,2.80646154 14.1150758,2.80646154 L11.609322,2.80646154 L11.609322,11.2071795 L11.9729282,11.2071795 C12.2247703,10.2228718 13.1479427,9.4905641 14.2454673,9.4905641 C15.342992,9.4905641 16.2669095,10.2228718 16.5180065,11.2071795 M3.8059442,10.5674872 C3.13237851,10.5674872 2.58398874,11.0958974 2.58398874,11.745641 C2.58398874,12.3946667 3.13237851,12.9230769 3.8059442,12.9230769 C4.48025499,12.9230769 5.02789966,12.3946667 5.02789966,11.745641 C5.02789966,11.0958974 4.48025499,10.5674872 3.8059442,10.5674872 M14.2454673,10.5674872 C13.5719016,10.5674872 13.0235119,11.0958974 13.0235119,11.745641 C13.0235119,12.3946667 13.5719016,12.9230769 14.2454673,12.9230769 C14.9197781,12.9230769 15.4681679,12.3946667 15.4681679,11.745641 C15.4681679,11.0958974 14.9197781,10.5674872 14.2454673,10.5674872 M14.2454673,14 C13.1479427,14 12.2247703,13.2676923 11.9729282,12.2841026 L6.07848332,12.2841026 C5.82738637,13.2676923 4.90346883,14 3.8059442,14 C2.70841957,14 1.78450203,13.2676923 1.53340508,12.2841026 L1.41195463,12.2841026 C0.633330574,12.2841026 0,11.6738462 0,10.9235897 L0,1.36051282 C0,0.61025641 0.633330574,0 1.41195463,0 L10.1973673,0 C10.9759914,0 11.609322,0.61025641 11.609322,1.36051282 L11.609322,1.72953846 L14.1150758,1.72953846 C14.5114662,1.72953846 14.8914645,1.89179487 15.1574634,2.17394872 L17.6326683,4.79733333 C17.8696084,5.04717949 18,5.37169231 18,5.7105641 L18,11.745641 C18,12.0428718 17.7496481,12.2841026 17.4411789,12.2841026 L16.5180065,12.2841026 C16.2669095,13.2676923 15.342992,14 14.2454673,14" id="Truck"></path>
        </g>
    </g>
</svg>