<?xml version="1.0" encoding="UTF-8"?>
<svg width="61px" height="30px" viewBox="0 0 61 30" version="1.1" xmlns="http://www.w3.org/2000/svg" xmlns:xlink="http://www.w3.org/1999/xlink">
    <!-- Generator: sketchtool 49.2 (51160) - http://www.bohemiancoding.com/sketch -->
    <title>E9F6E7DB-046D-4801-856C-CDCED589103B</title>
    <desc>Created with sketchtool.</desc>
    <defs></defs>
    <g id="Symbols" stroke="none" stroke-width="1" fill="none" fill-rule="evenodd">
        <g id="Desktop/Footer/Default" transform="translate(-526.000000, -52.000000)" fill="#0A0B09" stroke="#F4F4F5">
            <g id="Footer">
                <g id="USPs-footer" transform="translate(141.000000, 38.000000)">
                    <g id="USPs-Footer" transform="translate(72.000000, 0.000000)">
                        <g id="Desktop/Icons/USPs-2" transform="translate(314.000000, 0.000000)">
                            <g id="delivery-truck" transform="translate(0.000000, 15.000000)">
                                <path d="M56.6414947,22.4456581 L55.1032285,22.4456581 C54.5846534,20.5852917 52.8531789,19.2140699 50.8015406,19.2140699 C48.750018,19.2140699 47.0186592,20.5852917 46.500084,22.4456581 L45.2352694,22.4456581 L45.2352694,8.25135514 L50.4187085,8.25135514 L56.6414947,15.2466015 L56.6414947,22.4456581 Z M50.8015406,25.6773601 C49.642291,25.6773601 48.6992589,24.7484863 48.6992589,23.6069211 C48.6992589,22.4654698 49.642291,21.536596 50.8015406,21.536596 C51.9607903,21.536596 52.903938,22.4654698 52.903938,23.6069211 C52.903938,24.7484863 51.9609059,25.6773601 50.8015406,25.6773601 Z M26.4633111,25.6773601 C25.3040615,25.6773601 24.3610294,24.7484863 24.3610294,23.6069211 C24.3610294,22.4654698 25.3040615,21.536596 26.4633111,21.536596 C27.6225607,21.536596 28.5657084,22.4654698 28.5657084,23.6069211 C28.5657084,24.7484863 27.6225607,25.6773601 26.4633111,25.6773601 Z M42.8767641,22.4456581 L30.7648834,22.4456581 C30.2463082,20.5852917 28.5147181,19.2140699 26.4631955,19.2140699 C24.4115572,19.2140699 22.680314,20.5852917 22.1616232,22.4456581 L20.8795805,22.4456581 L20.8795805,2.32241222 L42.8767641,2.32241222 L42.8767641,22.4456581 Z M46.5001996,24.768298 C47.0186592,26.6286644 48.7501336,27.9998861 50.8016563,27.9998861 C52.8532945,27.9998861 54.5846534,26.6286644 55.1033442,24.768298 L57.8207474,24.768298 C58.4719436,24.768298 59,24.2482972 59,23.6069211 L59,14.8099465 C59,14.5284834 58.8960537,14.2565846 58.7078173,14.0448041 L51.8407722,6.32494968 C51.6168079,6.07331802 51.2934066,5.92882907 50.9537023,5.92882907 L45.2355006,5.92882907 L45.2355006,1.16126304 C45.2355006,0.519886953 44.7074442,0 44.056248,0 L19.7004435,0 C19.0492472,0 18.5210753,0.519886953 18.5210753,1.16126304 L18.5210753,2.72821097 L7.17936825,2.72821097 C6.52817198,2.72821097 6,3.24809792 6,3.88947401 C6,4.53085009 6.52817198,5.05073704 7.17936825,5.05073704 L18.5210753,5.05073704 L18.5210753,20.104345 L11.6939206,20.104345 C11.0427243,20.104345 10.5146679,20.624232 10.5146679,21.265608 C10.5146679,21.9069841 11.0427243,22.4268711 11.6939206,22.4268711 L18.5210753,22.4268711 L18.5210753,23.607035 C18.5210753,24.2485249 19.0492472,24.7684118 19.7004435,24.7684118 L22.1617388,24.7684118 C22.680314,26.6287782 24.4116728,28 26.4633111,28 C28.5148337,28 30.2463082,26.6287782 30.764999,24.7684118 L46.5001996,24.7684118 L46.5001996,24.768298 Z" id="Fill-1" stroke-width="0.5"></path>
                                <path d="M7.8159514,20 L7.1841647,20 C6.53032003,20 6,20.447691 6,21 C6,21.552309 6.53032003,22 7.1841647,22 L7.8159514,22 C8.46979606,22 9,21.552309 9,21 C9,20.447691 8.46991216,20 7.8159514,20" id="Fill-3" stroke-width="0.5"></path>
                                <path d="M15,11.999951 C15,11.447669 14.4718155,11 13.8204612,11 L1.17953878,11 C0.528184489,11 0,11.447669 0,11.999951 C0,12.552233 0.528184489,13 1.17953878,13 L13.8204612,13 C14.4718155,13 15,12.552233 15,11.999951" id="Fill-4" stroke-width="0.5"></path>
                            </g>
                        </g>
                    </g>
                </g>
            </g>
        </g>
    </g>
</svg>