<?xml version="1.0" encoding="UTF-8"?>
<svg width="37px" height="12px" viewBox="0 0 37 12" version="1.1" xmlns="http://www.w3.org/2000/svg" xmlns:xlink="http://www.w3.org/1999/xlink">
    <!-- Generator: sketchtool 49.2 (51160) - http://www.bohemiancoding.com/sketch -->
    <title>F14042DD-6C7D-4AA4-9971-CBF9606A711A</title>
    <desc>Created with sketchtool.</desc>
    <defs></defs>
    <g id="Symbols" stroke="none" stroke-width="1" fill="none" fill-rule="evenodd">
        <g id="Desktop/Footer/Email-sign-up" transform="translate(-1166.000000, -652.000000)" fill="#97999B">
            <g id="Footer">
                <g id="Payment-logos" transform="translate(1097.000000, 652.000000)">
                    <g id="002-visa-pay-logo" transform="translate(69.582278, 0.379747)">
                        <path d="M33.3491674,0.191797778 L31.1084765,0.191797778 C30.412575,0.191797778 29.8948467,0.376323602 29.5888739,1.0507973 L25.2782025,10.5597857 L28.327669,10.5597857 C28.327669,10.5597857 28.8230091,9.28173985 28.936816,9.00086064 C29.2679756,9.00086064 32.2306877,9.00449662 32.6532659,9.00449662 C32.7372219,9.36718531 33.0068137,10.5597857 33.0068137,10.5597857 L35.6962025,10.5597857 L33.3491674,0.191797778 Z M29.7707784,6.87745017 C30.0114521,6.28114997 30.9256391,3.97684966 30.9256391,3.97684966 C30.9116465,4.00502848 31.1625815,3.37691348 31.3118365,2.98604597 L31.5086665,3.88140527 C31.5086665,3.88140527 32.0665071,6.35932348 32.1831126,6.87745017 L29.7707784,6.87745017 Z M25.4815624,7.16560134 C25.460107,9.31719063 23.4778139,10.7088608 20.4274145,10.7088608 C19.1270302,10.6952258 17.8770194,10.4461614 17.1960434,10.1552833 L17.6036962,7.83280309 L17.9786994,8.00005802 C18.9302001,8.38728955 19.5496084,8.54272756 20.7119319,8.54272756 C21.5430957,8.54272756 22.4358273,8.2236706 22.4460886,7.53101701 C22.4498199,7.07651991 22.0710853,6.75382696 20.9414115,6.24206322 C19.8415886,5.74484339 18.3798223,4.91402269 18.4022105,3.42327219 C18.4162032,1.40985002 20.4348772,0 23.3024392,0 C24.4293146,0 25.3285761,0.227248552 25.9050735,0.43631722 L25.5114134,2.68425989 L25.2483515,2.56336367 C24.7128991,2.354295 24.0281917,2.15158929 23.076691,2.16976917 C21.9404872,2.16976917 21.4152961,2.62790225 21.4152961,3.0605835 C21.4078334,3.5468954 22.0272417,3.86686136 23.0440415,4.34590131 C24.7203619,5.0849136 25.4964879,5.98663585 25.4815624,7.16560134 Z M0,0.2981501 L0.0363809099,0.0890814323 L4.53641961,0.0890814323 C5.14183527,0.113624276 5.6297126,0.301786077 5.80135587,0.933537051 L6.77804337,5.51759484 C5.81534852,3.11785013 3.50189579,1.12533483 0,0.2981501 Z M13.1213815,0.188161801 L8.55231236,10.5425148 L5.48045758,10.5488778 L2.88248748,1.89616192 C4.75190654,3.0605835 6.34053961,4.91038671 6.90117876,6.19570452 L7.20435301,7.26468171 L10.0467282,0.191797778 L13.1213815,0.188161801 Z M14.2948991,0.180889847 L17.1960434,0.180889847 L15.3807293,10.5525138 L12.4805178,10.5525138 L14.2948991,0.180889847 Z" id="Visa"></path>
                    </g>
                </g>
            </g>
        </g>
    </g>
</svg>