<?xml version="1.0" encoding="UTF-8"?>
<svg width="18px" height="17px" viewBox="0 0 18 17" version="1.1" xmlns="http://www.w3.org/2000/svg" xmlns:xlink="http://www.w3.org/1999/xlink">
    <!-- Generator: sketchtool 49.2 (51160) - http://www.bohemiancoding.com/sketch -->
    <title>F050C7F3-BCF1-45C8-BF40-6D25CA0F0B9C</title>
    <desc>Created with sketchtool.</desc>
    <defs></defs>
    <g id="Symbols" stroke="none" stroke-width="1" fill="none" fill-rule="evenodd">
        <g id="Desktop/Header/1" transform="translate(-1406.000000, -55.000000)" stroke="#000000">
            <g id="basket" transform="translate(1359.000000, 55.000000)">
                <g id="Desktop/Icons/Bag" transform="translate(47.000000, 0.000000)">
                    <g id="Bag" transform="translate(0.000000, 1.000000)">
                        <path d="M1.08091304,5.14444444 C1.06925388,5.14459552 1.06925388,5.14459552 1.0576182,5.14535023 C0.892433024,5.15821561 0.768953436,5.30255411 0.78181882,5.46773928 L1.52604959,15.0232948 C1.53821343,15.1794725 1.66849316,15.3 1.82514381,15.3 L16.1748562,15.3 C16.3315068,15.3 16.4617866,15.1794725 16.4739504,15.0232948 L17.2181812,5.46773928 C17.2189359,5.4561036 17.2189359,5.4561036 17.219087,5.44444444 C17.219087,5.27875902 17.0847724,5.14444444 16.919087,5.14444444 L1.08091304,5.14444444 Z" id="Rectangle" stroke-width="1.4"></path>
                        <path d="M5.4,9.77777778 L5.4,2.82311111 C5.4,1.264 6.67930987,0 8.25816057,0 L9.74284124,0 C11.3206901,0 12.6,1.264 12.6,2.82222222 L12.6,9.77777778" id="Stroke-5" stroke-width="1.4" stroke-linecap="round"></path>
                    </g>
                </g>
            </g>
        </g>
    </g>
</svg>