<?xml version="1.0" encoding="UTF-8"?>
<svg width="63" height="46" version="1.1" viewBox="0 0 400 292.84" xmlns="http://www.w3.org/2000/svg">
    <path d="m2.03 4.061c-0.03 65.524 0.024 163.89 0.09 163.96 0.05 0.05 0.642-0.221 1.316-0.602 0.675-0.38 1.31-0.615 1.413-0.522s0.114 0.043 0.024-0.113c-0.089-0.155-0.074-0.282 0.034-0.282s0.44-0.226 0.738-0.503c0.678-0.632 2.978-2.203 3.226-2.203 0.102-1e-3 0.339-0.154 0.526-0.341 0.187-0.188 0.449-0.273 0.583-0.191 0.137 0.085 0.177 0.045 0.092-0.093-0.156-0.253 0.858-1.179 1.295-1.183 0.139-1e-3 0.622-0.353 1.074-0.781 0.453-0.429 0.957-0.809 1.12-0.845 0.345-0.074 0.54-0.209 1.397-0.97 0.348-0.308 0.733-0.56 0.855-0.56 0.123 0 0.448-0.21 0.722-0.466s0.955-0.761 1.514-1.122c0.558-0.361 1.137-0.761 1.287-0.888s0.337-0.231 0.415-0.231c0.079 0 0.311-0.208 0.517-0.462s0.599-0.478 0.873-0.498c0.274-0.021 0.46-0.075 0.414-0.122-0.095-0.094 0.826-1.062 1.011-1.062 0.065 0 0.268-0.127 0.451-0.282 0.664-0.564 2.697-1.861 2.917-1.861 0.124 0 0.392-0.254 0.595-0.564 0.204-0.31 0.467-0.564 0.586-0.564 0.118 0 0.368-0.152 0.554-0.338 0.186-0.187 0.534-0.339 0.774-0.339 0.239 0 0.409-0.127 0.378-0.282s0.071-0.256 0.226-0.225 0.282-0.079 0.282-0.244 0.279-0.445 0.62-0.621c0.571-0.294 4.309-2.859 4.569-3.134 0.101-0.108 1.2-0.865 3.587-2.47 0.446-0.301 1.167-0.884 1.602-1.295 0.731-0.694 0.99-0.842 1.215-0.697 0.048 0.031 0.299-0.197 0.557-0.507s0.472-0.483 0.476-0.384c9e-3 0.211 1.777-0.975 2.627-1.762 0.323-0.3 0.881-0.675 1.24-0.834s0.653-0.361 0.653-0.449c0-0.251 1.957-1.533 2.109-1.381 0.075 0.075 0.2-0.03 0.278-0.233s0.222-0.32 0.32-0.259 0.239-0.048 0.313-0.241c0.075-0.193 0.227-0.295 0.339-0.226s0.264-0.032 0.338-0.225c0.074-0.194 0.227-0.295 0.339-0.226s0.256-0.011 0.32-0.178c0.144-0.375 3.525-2.702 3.926-2.702 0.16 0 0.241-0.05 0.18-0.111-0.146-0.146 0.845-0.843 1.087-0.765 0.102 0.033 0.128-0.033 0.058-0.146-0.07-0.114 0.207-0.365 0.615-0.559 0.409-0.194 0.941-0.571 1.182-0.838 0.455-0.502 1.681-1.227 1.681-0.994 0 0.073 0.381-0.228 0.846-0.669 0.465-0.442 1.201-0.97 1.636-1.175 0.764-0.361 1.72-1.078 2.975-2.232 0.333-0.307 0.679-0.557 0.768-0.557s0.527-0.279 0.973-0.62 0.887-0.595 0.98-0.564 0.144-0.071 0.113-0.226 0.12-0.268 0.336-0.251 0.341-0.052 0.279-0.153c-0.124-0.201 0.77-0.571 1.134-0.468 0.124 0.035 0.155-7e-3 0.068-0.094-0.211-0.211 1.107-1.301 1.374-1.136 0.116 0.072 0.245 0.045 0.287-0.06 0.087-0.22 3.115-2.069 3.388-2.069 0.101 0 0.818-0.298 1.594-0.664 0.776-0.365 1.664-0.71 1.974-0.766 0.311-0.057 1.113-0.312 1.784-0.569 0.671-0.256 1.289-0.422 1.375-0.369 0.198 0.122 1.751-0.277 2.459-0.631 0.909-0.456 14.01-0.355 14.01 0.108 0 0.116 0.093 0.153 0.207 0.083 0.113-0.07 0.494-9e-3 0.846 0.136 0.351 0.145 0.733 0.241 0.847 0.214 0.115-0.027 0.805 0.174 1.533 0.446 0.729 0.273 1.498 0.516 1.71 0.54 0.656 0.076 1.851 0.604 1.851 0.818 0 0.112 0.076 0.183 0.169 0.157 0.294-0.079 1.861 0.579 1.861 0.782 0 0.106 0.081 0.144 0.179 0.083 0.265-0.164 1.64 0.556 1.499 0.785-0.067 0.108 0.028 0.139 0.211 0.068 0.183-0.07 0.524 0.065 0.759 0.299 0.234 0.234 0.561 0.381 0.726 0.327 0.164-0.055 0.235 3e-3 0.157 0.129s0.035 0.216 0.251 0.199c0.217-0.017 0.364 0.102 0.33 0.268-0.034 0.164 0.032 0.24 0.146 0.17 0.115-0.071 0.511 0.154 0.881 0.499 0.371 0.346 0.775 0.595 0.9 0.554 0.124-0.042 0.577 0.335 1.007 0.837 0.43 0.501 0.856 0.912 0.946 0.912 0.324 0 2.837 2.329 2.837 2.628 0 0.168 0.083 0.305 0.184 0.305 0.38 0 1.82 1.586 2.969 3.271 0.423 0.621 0.851 1.162 0.952 1.203 0.1 0.042 0.182 0.204 0.182 0.36 0 0.157 0.204 0.469 0.453 0.695 0.249 0.225 0.407 0.455 0.351 0.51-0.055 0.055 0.138 0.358 0.429 0.671 0.29 0.314 0.665 0.836 0.832 1.16 0.167 0.325 0.608 0.929 0.981 1.343 0.372 0.415 0.768 0.922 0.881 1.128 0.112 0.207 0.502 0.756 0.865 1.221 0.363 0.466 0.586 0.846 0.494 0.846-0.091 0 0.033 0.178 0.277 0.395 0.703 0.625 1.88 2.463 1.704 2.658-0.088 0.098-0.041 0.11 0.105 0.026 0.248-0.142 0.675 0.637 0.569 1.039-0.025 0.093 0.072 0.143 0.214 0.112 0.239-0.052 2.272 2.564 2.115 2.721-0.038 0.039 0.148 0.308 0.414 0.599 0.804 0.879 1.073 1.249 0.911 1.249-0.085 0 0.095 0.231 0.4 0.514s0.748 0.841 0.984 1.241 0.496 0.727 0.579 0.727c0.082 0 0.275 0.304 0.43 0.676 0.154 0.373 0.369 0.677 0.478 0.677s0.198 0.142 0.198 0.315c0 0.172 0.159 0.375 0.353 0.449 0.194 0.075 0.297 0.225 0.229 0.335-0.067 0.11 0.232 0.576 0.665 1.035 0.433 0.46 0.721 0.945 0.638 1.078-0.088 0.143-0.043 0.176 0.111 0.081 0.246-0.152 0.37 0.152 0.268 0.655-0.025 0.124 0.03 0.151 0.121 0.06 0.224-0.224 1.248 1.188 1.07 1.475-0.077 0.125-0.042 0.166 0.079 0.092 0.12-0.075 0.396 0.163 0.612 0.529 0.215 0.365 0.34 0.664 0.277 0.664-0.064 0 0.108 0.236 0.382 0.525 0.742 0.783 1.286 1.49 1.291 1.678 2e-3 0.091 0.256 0.405 0.564 0.698 0.308 0.292 0.56 0.673 0.56 0.846s0.101 0.314 0.225 0.314c0.125 0 0.226 0.142 0.226 0.315 0 0.172 0.159 0.375 0.353 0.449 0.194 0.075 0.289 0.238 0.212 0.363s-0.033 0.227 0.099 0.227c0.131 0 0.238 0.091 0.238 0.202s0.32 0.542 0.711 0.959c0.391 0.416 0.882 1.137 1.092 1.602 0.209 0.464 0.448 0.777 0.53 0.695s0.149-0.042 0.149 0.089 0.353 0.63 0.785 1.109c0.431 0.479 0.786 0.999 0.789 1.156 3e-3 0.156 0.208 0.458 0.457 0.67 0.248 0.213 0.451 0.516 0.451 0.675 0 0.158 0.11 0.288 0.244 0.288 0.135 0 0.203 0.126 0.151 0.28-0.051 0.154 0.105 0.383 0.347 0.508s0.656 0.593 0.92 1.04c0.265 0.448 1.039 1.603 1.722 2.568 0.682 0.966 1.485 2.122 1.782 2.571 0.298 0.449 0.613 0.867 0.7 0.929s0.42 0.532 0.741 1.045 0.844 1.213 1.162 1.556 0.578 0.736 0.579 0.873c0 0.215 0.302 0.635 1.348 1.875 0.127 0.15 0.23 0.367 0.23 0.483s0.159 0.272 0.353 0.347c0.194 0.074 0.293 0.232 0.219 0.351-0.073 0.119 0.076 0.327 0.331 0.464s0.404 0.345 0.331 0.463c-0.073 0.117-0.038 0.214 0.077 0.214s0.47 0.381 0.79 0.846c0.319 0.465 0.945 1.353 1.391 1.974 0.445 0.62 1.075 1.534 1.4 2.03 0.325 0.497 0.677 0.937 0.782 0.978 0.106 0.041 0.192 0.163 0.192 0.27 0 0.108 0.255 0.47 0.567 0.807 0.311 0.336 0.518 0.658 0.46 0.716s0.119 0.304 0.393 0.546 0.346 0.374 0.159 0.294c-0.186-0.081-0.141 0.013 0.1 0.208s0.383 0.355 0.317 0.355c-0.067 0 0.269 0.423 0.746 0.94s0.868 1.032 0.868 1.145 0.463 0.807 1.028 1.542c0.566 0.735 0.947 1.339 0.846 1.343-0.1 4e-3 -2e-3 0.112 0.218 0.24 0.219 0.128 0.347 0.317 0.283 0.42-0.064 0.104 0.042 0.249 0.235 0.323 0.193 0.075 0.288 0.237 0.211 0.362s-0.033 0.228 0.099 0.228c0.131 0 0.238 0.152 0.238 0.338s0.102 0.338 0.226 0.338 0.226 0.091 0.226 0.202 0.304 0.528 0.676 0.926c0.371 0.398 0.626 0.804 0.565 0.902-0.061 0.099 0.056 0.243 0.259 0.321s0.308 0.203 0.234 0.277c-0.075 0.075 0.088 0.323 0.362 0.551 0.274 0.229 0.434 0.42 0.355 0.424s0.209 0.388 0.639 0.853c0.85 0.92 1.465 1.947 1.3 2.171-0.057 0.078-0.042 0.097 0.034 0.041 0.175-0.127 1.216 1.097 1.216 1.43 0 0.138 0.107 0.25 0.239 0.25 0.131 0 0.185 0.087 0.119 0.193-0.065 0.106 0.134 0.43 0.443 0.72 0.308 0.29 0.874 1.015 1.257 1.612s0.804 1.085 0.936 1.085 0.178 0.061 0.102 0.137c-0.075 0.075 0.111 0.404 0.414 0.731 0.303 0.326 0.551 0.684 0.551 0.795s0.218 0.391 0.485 0.623c0.268 0.231 0.42 0.421 0.338 0.421-0.081 0 0.256 0.364 0.749 0.81 0.493 0.445 0.874 0.927 0.846 1.071-0.027 0.144 0.055 0.244 0.182 0.223 0.127-0.022 0.482 0.165 0.789 0.414 0.307 0.25 0.407 0.378 0.22 0.285-0.199-0.099-0.261-0.084-0.15 0.037 0.103 0.113 0.256 0.207 0.338 0.209 0.083 2e-3 0.252 0.068 0.376 0.147 0.125 0.079 1.107 0.601 2.184 1.16 1.077 0.558 1.905 1.069 1.839 1.134-0.065 0.066 0.083 0.067 0.329 2e-3 0.246-0.064 0.516-7e-3 0.6 0.128 0.083 0.135 0.348 0.246 0.589 0.246s0.438 0.087 0.438 0.194 0.254 0.146 0.564 0.086c0.321-0.061 0.564-2e-3 0.564 0.137 0 0.135 0.144 0.19 0.321 0.122 0.176-0.067 0.524-0.014 0.773 0.119 0.315 0.169 8.125 0.246 25.568 0.253l25.115 0.01 9e-3 -0.63c7e-3 -0.414-0.243-0.891-0.728-1.393-0.406-0.419-0.683-0.85-0.617-0.958 0.067-0.108 0.031-0.196-0.08-0.196-0.294 0-2.207-2.917-2.119-3.231 0.042-0.146 1e-3 -0.192-0.089-0.102-0.194 0.194-2.361-2.792-2.207-3.041 0.057-0.093-8e-3 -0.169-0.145-0.169-0.138 0-0.394-0.33-0.569-0.733s-0.323-0.632-0.329-0.508-0.207-0.072-0.447-0.437c-0.24-0.364-0.39-0.738-0.333-0.83 0.057-0.093-0.016-0.242-0.161-0.331-0.176-0.109-0.203-0.065-0.082 0.132 0.121 0.195 0.095 0.241-0.077 0.134-0.144-0.088-0.261-0.347-0.261-0.575 0-0.227-0.159-0.474-0.353-0.549-0.194-0.074-0.289-0.237-0.212-0.362s8e-3 -0.228-0.155-0.229c-0.162-2e-3 -0.694-0.622-1.182-1.379-0.488-0.758-1.27-1.841-1.738-2.407-0.468-0.565-0.805-1.102-0.75-1.191 0.056-0.09-0.05-0.221-0.234-0.292-0.184-0.07-0.71-0.714-1.168-1.431-0.458-0.716-1.014-1.497-1.235-1.734s-0.349-0.518-0.284-0.623 0.011-0.191-0.121-0.191c-0.131 0-0.239-0.153-0.239-0.339s-0.101-0.338-0.225-0.338-0.226-0.142-0.226-0.314c0-0.173-0.153-0.374-0.34-0.445-0.188-0.072-0.317-0.21-0.289-0.307 0.029-0.096-0.27-0.522-0.664-0.947-0.394-0.424-0.654-0.881-0.578-1.015s0.055-0.168-0.047-0.075c-0.187 0.169-1.17-1.102-1.289-1.668-0.035-0.168-0.243-0.439-0.463-0.603-0.219-0.163-0.33-0.407-0.247-0.542 0.085-0.137 0.048-0.181-0.084-0.1-0.25 0.155-0.968-0.784-1.073-1.402-0.034-0.201-0.169-0.342-0.3-0.314-0.131 0.029-0.31-0.174-0.397-0.451-0.088-0.277-0.348-0.667-0.578-0.868s-0.419-0.455-0.419-0.566-0.24-0.46-0.533-0.776c-0.608-0.656-1.165-1.596-1.094-1.846 0.026-0.093-0.071-0.17-0.215-0.17-0.145 0-0.208-0.055-0.139-0.124 0.068-0.068-0.131-0.398-0.442-0.733-0.988-1.062-2.924-3.66-3.361-4.51-0.231-0.45-0.629-1.026-0.884-1.279-0.558-0.554-1.532-1.927-1.367-1.927 0.064 0-0.144-0.279-0.462-0.62-0.551-0.59-2.332-3.141-2.332-3.341 0-0.052-0.178-0.302-0.395-0.555-0.217-0.254-0.396-0.534-0.398-0.623-1e-3 -0.089-0.306-0.487-0.677-0.883-1-1.071-1.102-1.214-1.685-2.381-0.294-0.59-0.618-1.072-0.72-1.072s-0.186-0.141-0.186-0.314-0.167-0.379-0.371-0.457-0.316-0.197-0.249-0.263c0.066-0.067-0.097-0.359-0.363-0.65-0.841-0.92-1.024-1.197-0.883-1.338 0.075-0.075 0.024-0.137-0.112-0.137-0.137 0-0.676-0.659-1.197-1.466-0.522-0.807-1.036-1.466-1.143-1.466s-0.194-0.179-0.194-0.397c0-0.219-0.207-0.527-0.46-0.685s-0.399-0.385-0.325-0.505 0.034-0.218-0.089-0.218c-0.268 0-2.8-3.604-2.807-3.995-2e-3 -0.15-0.078-0.226-0.168-0.17-0.161 0.099-0.475-0.473-0.375-0.684 0.028-0.058-0.18-0.267-0.461-0.464s-0.453-0.454-0.381-0.57c0.072-0.117-0.011-0.267-0.185-0.333-0.175-0.067-0.763-0.802-1.307-1.634s-1.094-1.588-1.22-1.679c-0.14-0.1-0.144-0.167-0.012-0.169 0.121-2e-3 -6e-3 -0.161-0.282-0.355-0.276-0.193-0.501-0.473-0.501-0.622s-0.203-0.398-0.451-0.553c-0.249-0.155-0.452-0.428-0.452-0.607s-0.136-0.407-0.304-0.506c-0.167-0.099-0.593-0.637-0.946-1.196-0.354-0.558-0.843-1.243-1.089-1.522-0.246-0.28-0.359-0.508-0.251-0.508 0.107 0-2e-3 -0.149-0.243-0.331-0.241-0.183-0.362-0.335-0.27-0.339s-0.031-0.235-0.274-0.515c-0.243-0.279-0.467-0.609-0.499-0.733-0.031-0.124-0.269-0.428-0.528-0.677-0.259-0.248-0.951-1.161-1.539-2.03-0.587-0.869-1.368-1.975-1.736-2.459-0.367-0.484-0.668-1.023-0.668-1.198s-0.084-0.266-0.187-0.202c-0.186 0.115-1.369-1.575-1.405-2.007-0.011-0.124-0.164-0.307-0.342-0.406-0.177-0.099-0.322-0.317-0.322-0.483 0-0.167-0.152-0.362-0.338-0.433-0.187-0.072-0.339-0.286-0.339-0.476s-0.083-0.345-0.184-0.345c-0.233 0-2.65-3.438-2.577-3.666 0.029-0.093-0.045-0.169-0.166-0.169-0.247 0-1.03-1.364-0.949-1.653 0.029-0.102-0.048-0.124-0.17-0.049-0.121 0.076-0.367-0.146-0.546-0.491-0.179-0.346-0.536-0.82-0.794-1.053s-0.415-0.512-0.348-0.62c0.066-0.107 0.038-0.195-0.062-0.196-0.1 0-0.538-0.533-0.972-1.184s-0.845-1.235-0.913-1.297c-0.363-0.33-1.122-1.58-0.964-1.586 0.102-4e-3 7e-3 -0.11-0.21-0.237-0.217-0.126-0.395-0.377-0.395-0.557s-0.084-0.327-0.187-0.327c-0.262 0-1.693-2.03-1.693-2.402 0-0.168-0.045-0.26-0.101-0.205-0.142 0.142-1.669-1.833-3.131-4.049-0.327-0.496-0.656-0.953-0.731-1.015s-0.28-0.392-0.456-0.733-0.404-0.62-0.507-0.62-0.188-0.153-0.188-0.339-0.101-0.338-0.225-0.338-0.226-0.153-0.226-0.339-0.101-0.338-0.225-0.338-0.226-0.142-0.226-0.314c0-0.173-0.167-0.379-0.371-0.457s-0.318-0.194-0.255-0.258c0.064-0.063-0.173-0.424-0.526-0.801-0.353-0.378-0.618-0.755-0.591-0.839 0.028-0.083-0.033-0.151-0.136-0.151-0.251 0-0.817-1.076-0.682-1.295 0.058-0.094 5e-3 -0.172-0.119-0.172-0.224 0-1.719-1.943-1.719-2.235 0-0.085-0.254-0.414-0.564-0.731-0.985-1.007-1.529-1.709-1.67-2.151-0.074-0.236-0.516-0.852-0.981-1.369-0.466-0.518-1.151-1.305-1.523-1.75s-1.003-1.146-1.403-1.558c-0.399-0.412-0.652-0.83-0.564-0.928 0.089-0.099 0.041-0.11-0.106-0.025-0.147 0.084-0.351 0.024-0.451-0.133-0.101-0.158-0.755-0.815-1.455-1.46-0.699-0.645-1.215-1.229-1.146-1.297 0.068-0.069-6e-3 -0.125-0.166-0.125-0.323 0-1.934-1.34-1.654-1.376 0.097-0.012-0.077-0.093-0.387-0.179s-0.564-0.274-0.564-0.418c0-0.143-0.142-0.392-0.315-0.553-0.262-0.244-0.288-0.236-0.152 0.045 0.089 0.186-0.035 0.114-0.278-0.16-0.242-0.274-0.489-0.448-0.55-0.388-0.06 0.06-0.429-0.188-0.819-0.553-0.39-0.364-1.749-1.298-3.02-2.076-1.271-0.777-2.362-1.478-2.424-1.556-0.062-0.079-0.442-0.276-0.843-0.439-0.402-0.162-0.676-0.384-0.609-0.492s-0.052-0.13-0.265-0.048c-0.284 0.108-0.338 0.068-0.203-0.151 0.117-0.189 0.097-0.244-0.055-0.15-0.341 0.21-0.985-0.078-0.809-0.363 0.082-0.132 0.039-0.17-0.096-0.087-0.133 0.082-0.391 1e-3 -0.572-0.18s-0.392-0.267-0.469-0.19-0.14 0.021-0.14-0.123c0-0.145-0.085-0.238-0.189-0.207-0.278 0.083-4.097-1.681-4.097-1.893 0-0.099-0.153-0.122-0.339-0.05-0.186 0.071-0.338 0.017-0.338-0.12s-0.076-0.23-0.17-0.205c-0.318 0.084-1.191-0.303-1.081-0.48 0.06-0.097-0.13-0.131-0.423-0.075-1.583 0.303-1.881-0.847-0.44-1.695 0.575-0.338 1.26-0.826 1.523-1.084s1.036-0.808 1.719-1.223c0.682-0.415 1.343-0.864 1.469-0.997 0.397-0.424 1.661-1.259 1.906-1.259 0.129 0 0.234-0.101 0.234-0.226 0-0.124 0.106-0.225 0.235-0.225 0.13 0 0.45-0.2 0.711-0.444 0.262-0.243 0.552-0.396 0.644-0.339s0.229-0.055 0.303-0.248 0.226-0.295 0.338-0.226c0.112 0.07 0.264-0.032 0.339-0.225 0.074-0.193 0.239-0.287 0.367-0.208s0.205 0.047 0.171-0.071c-0.034-0.119 0.474-0.578 1.129-1.021 0.655-0.444 1.129-0.684 1.052-0.535-0.076 0.149 0.067 0.017 0.319-0.293s0.552-0.564 0.668-0.564c0.115 0 0.553-0.284 0.972-0.631s1-0.804 1.292-1.015c0.291-0.211 0.894-0.667 1.338-1.013 0.445-0.346 0.948-0.575 1.117-0.51 0.17 0.065 0.254 0.029 0.187-0.079-0.162-0.263 0.421-0.733 0.808-0.652 0.168 0.036 0.284-0.052 0.257-0.196-0.053-0.279 1.33-1.431 1.718-1.431 0.128 0 0.343-0.206 0.478-0.458 0.134-0.251 0.341-0.398 0.459-0.325s0.214 0.027 0.214-0.102 0.254-0.298 0.564-0.376 0.564-0.219 0.564-0.313c0-0.15 0.894-0.809 3.835-2.827 0.435-0.298 1.145-0.803 1.58-1.122 3.073-2.261 3.627-2.615 3.866-2.467 0.155 0.096 0.204 0.066 0.119-0.072-0.156-0.252 0.864-1.114 2.028-1.713 0.392-0.202 0.849-0.503 1.015-0.669 0.167-0.166 0.905-0.701 1.639-1.189 0.734-0.489 1.673-1.118 2.087-1.399 0.413-0.281 0.752-0.469 0.752-0.418 0 0.052 0.347-0.226 0.772-0.617 1.816-1.671 4.459-3.398 4.771-3.118 0.093 0.083 0.102 0.034 0.02-0.109-0.09-0.157 0.273-0.508 0.912-0.882 0.583-0.342 1.505-0.961 2.049-1.377 0.544-0.415 1.098-0.688 1.231-0.606 0.138 0.086 0.176 0.044 0.087-0.099-0.188-0.305 1.414-1.437 1.758-1.241 0.134 0.076 0.173 0.06 0.087-0.036-0.087-0.096 0.352-0.578 0.976-1.07l1.132-0.896 44.521 0.135c40.748 0.123 44.593 0.166 45.386 0.508 0.476 0.205 1.123 0.351 1.437 0.323 0.315-0.027 1.685 0.322 3.046 0.776s2.601 0.832 2.756 0.839c0.156 7e-3 0.282 0.115 0.282 0.239s0.067 0.159 0.148 0.078 0.487 0.063 0.902 0.32c0.416 0.256 0.757 0.382 0.759 0.279 2e-3 -0.104 0.078-0.074 0.169 0.065s0.775 0.571 1.519 0.959c2.708 1.414 3.835 2.091 4.014 2.41 0.1 0.179 0.307 0.326 0.46 0.326 0.152 0 0.445 0.178 0.65 0.395s0.853 0.801 1.439 1.297 1.253 1.08 1.482 1.297c0.228 0.218 0.492 0.405 0.585 0.418 0.093 0.012 0.146 0.108 0.117 0.212-0.028 0.104 0.151 0.253 0.398 0.332 0.248 0.078 0.402 0.221 0.343 0.316s0.196 0.398 0.567 0.672c0.373 0.276 0.606 0.61 0.52 0.748-0.089 0.143-0.051 0.185 0.09 0.098 0.251-0.155 1.18 0.966 1.18 1.426 0 0.144 0.091 0.205 0.202 0.136 0.154-0.095 0.518 0.418 0.501 0.707-1e-3 0.025 0.296 0.366 0.661 0.757 0.366 0.391 0.619 0.784 0.564 0.873s0.102 0.335 0.349 0.547 0.378 0.499 0.292 0.639c-0.09 0.145-0.057 0.192 0.077 0.11 0.224-0.139 0.903 1.134 0.791 1.485-0.029 0.093 0.054 0.169 0.186 0.169 0.131 0 0.176 0.102 0.099 0.226-0.076 0.124-0.056 0.225 0.046 0.225 0.323 0 2.187 4.411 1.995 4.721-0.066 0.107 0.031 0.254 0.217 0.325 0.185 0.071 0.338 0.31 0.34 0.531s0.159 0.849 0.349 1.395c0.19 0.547 0.292 1.136 0.225 1.309-0.076 0.199-0.024 0.256 0.14 0.154 0.177-0.109 0.213-0.035 0.113 0.226-0.088 0.23-0.058 0.331 0.075 0.249 0.124-0.077 0.238 0.143 0.258 0.496 0.019 0.349 0.073 0.888 0.118 1.198 0.298 2.036 0.343 10.711 0.359 70.389 0.01 36.543 0.078 61.619 0.151 55.725l0.133-10.717 0.031 13.198c0.017 7.342-0.054 12.948-0.159 12.634-0.326-0.974 0.027 3.412 0.381 4.738 0.183 0.683 0.326 1.317 0.318 1.41-7e-3 0.093 0.197 0.38 0.455 0.638 0.283 0.283 0.412 0.615 0.326 0.839-0.078 0.204-0.07 0.299 0.018 0.211s0.449 0.234 0.802 0.715c0.354 0.481 0.9 1.042 1.213 1.248 0.314 0.205 0.511 0.471 0.438 0.589-0.074 0.119-9e-3 0.216 0.144 0.216 0.152 0 0.454 0.16 0.67 0.355 0.216 0.196 0.529 0.376 0.695 0.401 0.166 0.026 0.435 0.13 0.599 0.232 0.163 0.102 0.35 0.132 0.415 0.067s0.53 0.027 1.034 0.205c1.165 0.411 44.532 0.493 44.94 0.085 0.378-0.378 0.333-152.78-0.046-154.87-0.157-0.869-0.326-2.189-0.376-2.933-0.113-1.682-0.201-2.225-0.383-2.369-0.079-0.062-0.202-0.519-0.275-1.015-0.072-0.497-0.236-1.257-0.365-1.691-0.128-0.433-0.233-1.123-0.233-1.532s-0.187-1.12-0.416-1.58c-0.396-0.798-0.867-2.348-1.009-3.319-0.037-0.248-0.239-0.776-0.449-1.173s-0.383-0.854-0.384-1.016c0-0.161-0.155-0.588-0.343-0.95-0.189-0.361-0.363-0.894-0.387-1.184s-0.123-0.528-0.22-0.528-0.176-0.253-0.176-0.564c0-0.31-0.102-0.564-0.226-0.564s-0.206-0.076-0.183-0.169-0.133-0.569-0.345-1.058c-0.213-0.489-0.452-1.146-0.53-1.46-0.079-0.314-0.362-0.806-0.63-1.095-0.267-0.288-0.665-1.021-0.883-1.629-0.219-0.609-0.542-1.226-0.718-1.372s-0.32-0.406-0.32-0.576c0-0.171-0.102-0.311-0.226-0.311s-0.226-0.203-0.226-0.451c0-0.249-0.101-0.452-0.225-0.452s-0.226-0.152-0.226-0.338-0.101-0.339-0.225-0.339c-0.125 0-0.226-0.152-0.226-0.338s-0.102-0.338-0.226-0.338-0.2-0.095-0.169-0.21-0.116-0.344-0.326-0.508c-0.21-0.163-0.413-0.441-0.451-0.617s-0.247-0.506-0.464-0.733c-0.217-0.228-0.395-0.613-0.395-0.857s-0.203-0.552-0.451-0.685-0.451-0.335-0.451-0.449-0.254-0.461-0.564-0.771c-0.31-0.311-0.564-0.727-0.564-0.926s-0.102-0.3-0.226-0.223-0.225 0.032-0.225-0.099c0-0.132-0.181-0.421-0.403-0.642-0.222-0.222-0.704-0.802-1.072-1.29-1.001-1.327-0.966-1.289-5.021-5.438-2.075-2.122-4.002-3.932-4.282-4.021-0.303-0.096-0.448-0.269-0.357-0.427 0.084-0.146 0.071-0.192-0.027-0.103-0.258 0.233-1.507-0.713-1.327-1.004 0.085-0.138 0.045-0.179-0.091-0.094-0.133 0.082-0.684-0.182-1.225-0.586-1.269-0.949-3.261-2.323-4.879-3.366-1.142-0.737-2.393-1.446-6.81-3.864-0.682-0.373-1.275-0.766-1.316-0.872-0.042-0.106-0.16-0.142-0.262-0.078-0.247 0.152-3.836-1.473-3.836-1.737 0-0.114-0.093-0.15-0.206-0.08-0.314 0.194-0.939-0.116-0.773-0.384 0.087-0.141 0.037-0.17-0.123-0.071-0.148 0.091-0.696-0.059-1.219-0.334-0.857-0.451-1.158-0.54-2.148-0.636-0.163-0.016-0.234-0.129-0.158-0.252 0.082-0.132-0.019-0.163-0.249-0.074-0.214 0.082-0.33 0.055-0.259-0.059 0.071-0.115-0.09-0.225-0.358-0.246-0.888-0.068-2.456-0.473-2.6-0.67-0.078-0.107-0.497-0.227-0.932-0.267-0.434-0.04-1.601-0.278-2.594-0.529-2.354-0.596-2.622-0.658-3.158-0.739-0.249-0.038-0.502-0.092-0.565-0.122-0.062-0.03-0.352-0.034-0.645-9e-3 -0.293 0.024-0.476-0.048-0.407-0.16 0.069-0.113-0.148-0.166-0.482-0.119-0.723 0.101-4.204-0.265-5.008-0.527-0.713-0.232-27.355-0.372-77.27-0.404l-39.03-0.026-0.702 0.501c-0.387 0.276-0.767 0.437-0.846 0.357-0.08-0.079-0.144-0.025-0.144 0.12s-0.152 0.263-0.339 0.263c-0.186 0-0.338 0.084-0.338 0.187 0 0.257-1.935 1.629-2.113 1.498-0.079-0.058-0.093-0.039-0.032 0.043 0.118 0.158-0.834 0.91-0.993 0.786-0.051-0.04-0.183 0.089-0.293 0.286-0.111 0.197-0.34 0.359-0.51 0.359-0.169 0-0.342 0.077-0.383 0.172-0.117 0.268-2.908 2.306-3.2 2.336-0.143 0.015-0.343 0.012-0.445-6e-3 -0.103-0.017-0.122 0.072-0.043 0.199 0.13 0.212-0.173 0.333-0.634 0.253-0.103-0.018-0.122 0.071-0.043 0.199 0.13 0.211-0.173 0.332-0.634 0.252-0.102-0.018-0.127 0.064-0.054 0.181 0.168 0.272-1.103 1.194-1.345 0.975-0.099-0.089-0.113-0.046-0.032 0.096 0.124 0.217-0.225 0.502-0.642 0.525-0.06 4e-3 -0.306 0.184-0.545 0.401-1.133 1.029-1.903 1.463-2.186 1.233-0.11-0.088-0.128-0.073-0.041 0.034 0.234 0.29-2.459 2.466-2.805 2.266-0.157-0.09-0.21-0.081-0.118 0.021 0.232 0.256-0.672 0.853-0.993 0.655-0.161-0.1-0.199-0.062-0.099 0.099 0.089 0.144 0.057 0.261-0.07 0.261s-0.578 0.304-1.002 0.677c-0.424 0.372-0.845 0.677-0.936 0.677s-0.647 0.353-1.235 0.784c-0.588 0.432-1.135 0.737-1.215 0.677-0.08-0.059-0.094-0.039-0.031 0.044 0.166 0.22-1.059 0.976-1.319 0.816-0.121-0.074-0.146-0.018-0.058 0.125 0.147 0.237-0.135 0.365-0.615 0.282-0.103-0.018-0.129 0.061-0.058 0.175 0.111 0.181-0.362 0.516-0.809 0.574-0.083 0.011-0.235 0.112-0.339 0.225-0.111 0.122-0.05 0.131 0.151 0.023 0.578-0.311-0.032 0.199-1.298 1.085-0.652 0.456-1.275 0.83-1.386 0.83-0.11 0-0.262 0.158-0.336 0.352-0.075 0.194-0.227 0.296-0.339 0.227s-0.264 0.033-0.338 0.226c-0.075 0.193-0.237 0.288-0.362 0.211s-0.228-0.035-0.228 0.094-0.253 0.298-0.562 0.376-0.507 0.232-0.438 0.343c0.114 0.184-0.208 0.297-0.642 0.226-0.096-0.016-0.234 0.124-0.306 0.311-0.072 0.188-0.278 0.341-0.458 0.341s-0.274 0.087-0.209 0.193c0.123 0.199-0.963 0.823-1.293 0.743-0.102-0.025-0.128 0.049-0.057 0.164 0.126 0.205-1.29 1.169-1.837 1.252-0.152 0.023-0.355 0.128-0.452 0.234-0.096 0.107-0.049 0.121 0.107 0.031 0.155-0.089 0.282-0.119 0.282-0.066 0 0.146-1.745 1.269-2.078 1.337-0.16 0.033-0.454 0.236-0.653 0.451-0.198 0.215-0.427 0.325-0.507 0.244-0.081-0.08-0.147 0.02-0.147 0.224 0 0.409-1.201 1.135-1.456 0.881-0.088-0.089-0.127-0.041-0.085 0.106 0.085 0.301-1.367 1.467-1.627 1.306-0.093-0.057-0.229 0.054-0.303 0.248-0.074 0.193-0.237 0.288-0.362 0.211s-0.227-7e-3 -0.227 0.157c0 0.255-0.793 0.933-1.128 0.964-0.063 6e-3 -0.633 0.423-1.268 0.927-0.634 0.504-1.472 1.049-1.861 1.21s-0.707 0.378-0.707 0.482c0 0.105-0.634 0.618-1.41 1.14-0.775 0.523-1.484 1.06-1.576 1.193-0.091 0.134-0.167 0.163-0.169 0.065s-0.13-0.074-0.285 0.054c-1.67 1.379-2.274 1.797-2.447 1.69-0.112-0.07-0.204-0.041-0.204 0.064 0 0.244-1.747 1.538-3.511 2.602-0.752 0.454-1.864 1.261-2.471 1.793-0.607 0.533-1.025 0.816-0.928 0.63 0.103-0.198 0.042-0.177-0.146 0.053-0.176 0.215-0.387 0.325-0.468 0.244-0.081-0.08-0.147-0.032-0.147 0.109 0 0.351-1.602 1.411-1.877 1.241-0.125-0.077-0.152-0.023-0.062 0.123 0.146 0.237-0.135 0.365-0.616 0.282-0.102-0.018-0.133 0.053-0.068 0.157 0.108 0.175-1.236 1.119-1.396 0.98-0.038-0.034-0.521 0.354-1.072 0.862-0.55 0.507-1.255 1.038-1.565 1.179-0.31 0.142-0.563 0.342-0.563 0.447 0 0.104-0.127 0.19-0.282 0.192-0.296 3e-3 -0.981 0.499-2.457 1.777-0.485 0.421-0.937 0.711-1.003 0.644-0.067-0.066-0.369 0.128-0.673 0.432s-0.646 0.494-0.76 0.424c-0.115-0.071-0.282-0.01-0.372 0.135-0.102 0.165-0.065 0.204 0.097 0.103 0.144-0.088 0.261-0.113 0.261-0.056 0 0.25-2.113 1.477-2.321 1.348-0.133-0.082-0.162-0.031-0.069 0.12 0.094 0.152-0.01 0.325-0.247 0.412-0.353 0.129-0.98 0.569-2.035 1.43-0.15 0.122-0.378 0.222-0.508 0.222-0.129 0-0.235 0.09-0.235 0.199 0 0.251-1.13 1.004-1.506 1.004-0.153 0-0.226 0.085-0.162 0.188 0.063 0.103 0.024 0.188-0.088 0.188s-0.495 0.25-0.85 0.555-0.686 0.514-0.735 0.465c-0.05-0.049-0.335 0.175-0.635 0.498-0.559 0.603-1.248 1.073-1.946 1.325-0.217 0.078-0.395 0.223-0.395 0.32 0 0.276-2.066 1.579-2.286 1.443-0.107-0.066-0.195-0.013-0.195 0.118 0 0.132-0.17 0.239-0.376 0.239-0.207 0-0.308 0.069-0.225 0.152 0.175 0.174-2.345 2.023-2.629 1.93-0.104-0.035-0.131 0.03-0.06 0.144 0.07 0.114-0.202 0.366-0.604 0.561s-1.087 0.662-1.521 1.039-0.866 0.698-0.959 0.714-0.27 0.054-0.394 0.085c-0.125 0.031-0.345 0.069-0.489 0.085-0.145 0.015-0.196 0.095-0.115 0.177 0.172 0.172-0.77 0.893-1.049 0.803-0.102-0.034-0.13 0.029-0.063 0.138 0.068 0.11-0.229 0.389-0.66 0.621s-0.783 0.488-0.783 0.569-0.33 0.28-0.733 0.443-0.816 0.431-0.916 0.596c-0.101 0.165-0.274 0.244-0.385 0.175-0.111-0.068-0.355 0.107-0.541 0.391-0.187 0.283-0.749 0.767-1.251 1.075-0.501 0.309-0.912 0.639-0.912 0.733 0 0.095-0.152 0.173-0.338 0.173s-0.339 0.077-0.339 0.17c0 0.094-0.285 0.297-0.634 0.452-0.349 0.154-0.852 0.483-1.119 0.732-0.266 0.248-0.589 0.451-0.719 0.451-0.129 0-0.235 0.101-0.235 0.225s-0.152 0.226-0.338 0.226-0.339 0.076-0.34 0.169c-2e-3 0.227-1.617 1.312-1.847 1.241-0.1-0.031-0.182 0.037-0.182 0.151 0 0.251-1.617 1.281-1.878 1.196-0.102-0.034-0.133 0.024-0.069 0.129 0.065 0.104-0.207 0.377-0.603 0.607-0.397 0.229-1.077 0.708-1.511 1.064-1.26 1.033-1.328 1.083-1.467 1.083-0.073 0-0.8 0.506-1.617 1.124-0.816 0.618-1.599 1.059-1.738 0.979-0.14-0.08-0.181-0.064-0.092 0.034 0.189 0.21-1.324 1.473-1.764 1.473-0.762 0-0.774-0.665-0.763-40.514l0.011-39.627-0.712-1.108c-0.776-1.21-3.078-3.412-4.154-3.973-1.947-1.016-2.302-1.041-15.679-1.116-7.011-0.039-16.021-0.096-20.023-0.126l-7.276-0.056v1.015m373.45 1.444c-7.875 2.584-12.169 8.75-11.991 17.216 0.313 14.834 17.106 22.226 28.894 12.718 14.54-11.727 0.951-35.791-16.903-29.934m8.894 1.603c8.088 1.907 13.642 10.712 11.673 18.507-3.33 13.18-20.21 16.381-28.056 5.321-0.385-0.543-0.645-1.076-0.578-1.184 0.067-0.109-2e-3 -0.198-0.154-0.198s-0.219-0.058-0.148-0.129c0.071-0.07-0.153-0.756-0.499-1.522-4.952-10.99 5.827-23.609 17.762-20.795m-9.09 5.088c-0.066 0.106-0.28 0.131-0.477 0.055-0.356-0.136-0.308 18.329 0.049 18.907 0.143 0.231 1.306 0.264 2.302 0.065l0.681-0.136 0.034-2.809c0.037-3.049 0.251-4.043 0.825-3.823 0.194 0.075 1.005 0.136 1.802 0.136 1.087 0 1.447 0.078 1.447 0.314 0 0.173 0.149 0.371 0.33 0.441 0.385 0.148 1.408 2.08 1.568 2.964 0.061 0.335 0.276 1.108 0.478 1.717l0.368 1.107 1.73-4e-3c2.197-4e-3 2.46-0.15 1.973-1.092-0.2-0.387-0.354-0.77-0.34-0.851 0.013-0.08-0.07-0.208-0.184-0.284-0.115-0.076-0.482-0.697-0.816-1.379-0.335-0.682-0.857-1.72-1.16-2.305l-0.551-1.065 1.066-1.103c1.806-1.87 2.089-2.558 2.064-5.019-0.028-2.682-1.104-4.469-3.272-5.43-1.174-0.521-9.632-0.867-9.917-0.406m9.209 3.56c0.394 0.395 0.507 0.814 0.571 2.125 0.153 3.13-0.591 3.706-4.639 3.594l-2.538-0.071v-3.173-3.174l3.057 0.103c2.764 0.094 3.104 0.151 3.549 0.596m-382.58 257.29v16.869l3.948-0.061 3.948-0.062 0.113-3.497c0.148-4.582 0.421-5.038 4.923-8.192 0.953-0.668 1.872-1.382 2.042-1.587s0.403-0.373 0.517-0.373 0.736-0.394 1.382-0.876c2.204-1.644 2.977-1.916 5.3-1.869 2.465 0.051 3.527 0.785 5.356 3.704 0.369 0.589 0.748 1.071 0.841 1.071s0.169 0.109 0.169 0.242 0.127 0.376 0.282 0.539c0.155 0.164 0.454 0.537 0.665 0.83 0.517 0.717 2.136 2.923 2.49 3.392 0.157 0.208 0.438 0.598 0.624 0.866s1.162 1.58 2.169 2.916c1.008 1.336 1.879 2.571 1.937 2.744 0.086 0.26 1.575 0.336 8.469 0.429 4.6 0.062 8.316 0.036 8.259-0.057-0.058-0.093-9e-3 -0.169 0.109-0.169 0.363 0 0.476-0.92 0.503-4.103 0.033-3.976 0.665-5.072 3.789-6.577l1.207-0.582 11.615-0.035c8.2-0.025 11.688 0.038 11.863 0.214 0.167 0.167 0.231 1.59 0.194 4.337-0.098 7.236-0.373 6.808 4.342 6.766 4.13-0.037 4.094-0.032 4.165-0.576 0.184-1.39 0.019-21.834-0.184-22.907-0.129-0.682-0.294-1.545-0.367-1.918-0.072-0.372-0.223-0.787-0.334-0.923-0.112-0.135-0.136-0.313-0.054-0.395 0.081-0.081 0.042-0.148-0.087-0.148s-0.292-0.279-0.361-0.62c-0.361-1.773-2.992-4.304-5.42-5.212-2.352-0.88-3.487-0.946-16.404-0.947-14.397-2e-3 -13.564-0.109-16.672 2.144-0.248 0.18-0.282 0.164-0.144-0.065 0.28-0.466-1.685 0.821-2.652 1.737-2.598 2.461-2.867 4.09-2.87 17.412l-2e-3 10.952-0.613-0.019c-0.353-0.011-0.589-0.134-0.557-0.292 0.032-0.15-0.036-0.273-0.149-0.273s-0.748-0.914-1.41-2.031c-0.662-1.116-1.348-2.03-1.524-2.03s-0.253-0.066-0.172-0.147c0.08-0.081-0.03-0.292-0.245-0.468-0.261-0.214-0.279-0.272-0.053-0.175 0.186 0.081 0.059-0.073-0.283-0.341s-0.564-0.58-0.494-0.694c0.07-0.113 0.021-0.206-0.109-0.206s-0.506-0.431-0.837-0.959c-0.33-0.527-0.687-0.992-0.792-1.034-0.106-0.041-0.192-0.219-0.192-0.394 0-0.176-0.119-0.32-0.263-0.32-0.145 0-0.203-0.061-0.129-0.135 0.175-0.175-1.701-3.131-2.635-4.152-0.398-0.434-1.01-1.246-1.361-1.804-0.71-1.131-3.897-4.359-4.416-4.473-0.183-0.04-0.367-0.168-0.409-0.283-0.041-0.116-0.169-0.153-0.283-0.082-0.115 0.071-0.272-0.038-0.35-0.242-0.165-0.429 0.665-1.263 2.259-2.27 0.574-0.363 1.044-0.736 1.044-0.829s0.105-0.169 0.232-0.169c0.305 0 2.476-1.624 2.476-1.853 0-0.097 0.105-0.177 0.234-0.177s1.271-0.796 2.538-1.768 2.913-2.178 3.657-2.68c2.964-1.997 2.878-2.059-2.734-2-3.406 0.036-3.94 0.093-4.513 0.478-0.357 0.24-0.816 0.54-1.02 0.665-1.104 0.679-5.731 4.036-5.795 4.205-0.042 0.108-0.164 0.197-0.272 0.197s-2.866 1.897-6.129 4.215c-3.263 2.319-6.897 4.877-8.076 5.685-1.179 0.809-2.177 1.552-2.219 1.652-0.041 0.101-0.157 0.132-0.256 0.071-0.1-0.062-0.306 0.039-0.46 0.224-0.426 0.514-1.417 0.447-1.248-0.084 0.073-0.231 0.122-1.12 0.109-1.974-0.013-0.855-0.026-1.808-0.03-2.118-3e-3 -0.31-1e-3 -3.153 6e-3 -6.317 6e-3 -3.164 6e-3 -5.977 0-6.251-0.011-0.493-0.057-0.499-4.104-0.564l-4.093-0.066v16.869m105.77-16.709c-0.33 0.087-0.669 0.116-0.754 0.064-0.271-0.168-3.257 1.012-3.55 1.403-0.155 0.207-0.282 0.296-0.282 0.198 0-0.099-0.341 0.11-0.757 0.464-1.207 1.026-1.657 1.379-2.265 1.777-0.548 0.359-2.15 2.559-2.268 3.112-0.031 0.147-0.133 0.445-0.227 0.662s-0.113 0.547-0.041 0.733c0.071 0.186 0.042 0.338-0.065 0.338s-0.195 0.229-0.196 0.508c-0.017 13.45-0.01 23.399 0.016 23.762 0.041 0.56 0.693 0.645 4.749 0.619 3.382-0.021 3.125 0.429 3.108-5.449-0.01-3.088 0.07-5.032 0.21-5.118 0.124-0.077 0.173-0.223 0.11-0.326-0.238-0.384 0.734-0.443 7.831-0.47l7.28-0.029 1.757 2.332c0.967 1.283 1.956 2.561 2.199 2.84 0.242 0.28 0.394 0.508 0.338 0.508-0.057 0 0.298 0.431 0.788 0.959 0.49 0.527 0.892 1.086 0.893 1.241 2e-3 0.155 0.122 0.282 0.266 0.282 0.145 0 0.202 0.062 0.126 0.138-0.076 0.075 0.165 0.393 0.536 0.704 0.37 0.312 0.629 0.612 0.575 0.666s0.142 0.359 0.437 0.677 0.495 0.646 0.443 0.729c-0.157 0.255 3.691 0.395 7.603 0.277 1.411-0.043 1.408-0.431-0.017-2.316-0.598-0.791-1.842-2.49-2.763-3.773-0.922-1.284-2.005-2.792-2.409-3.353-1.12-1.556-0.789-2.097 1.284-2.097 1.011 0 2.595-0.518 3.087-1.01 0.191-0.191 0.456-0.28 0.589-0.198 0.155 0.096 0.176 0.042 0.058-0.149-0.134-0.216-0.082-0.259 0.188-0.156 0.205 0.079 0.348 0.071 0.319-0.018-0.03-0.088 0.036-0.178 0.147-0.198 0.11-0.02 0.263-0.139 0.34-0.264s0.289-0.26 0.47-0.301c0.432-0.098 2.712-2.34 2.712-2.668 0-0.139 0.085-0.201 0.188-0.137 0.202 0.125 1.202-1.911 1.618-3.293 0.138-0.459 0.243-1.525 0.233-2.369s-0.021-1.81-0.023-2.147c-3e-3 -0.338-0.102-0.674-0.221-0.747s-0.216-0.361-0.216-0.638c0-0.524-0.284-0.972-1.523-2.4-0.403-0.466-0.733-0.909-0.733-0.986 0-0.652-2.764-2.704-5.134-3.814l-1.492-0.698-12.482-0.015c-6.865-9e-3 -12.751 0.056-13.08 0.144m38.448-0.134c-0.371 0.113-0.394 1.114-0.394 16.889v16.769l3.102 0.059c1.706 0.033 3.609 0.068 4.23 0.079l1.128 0.019 0.058-16.827c0.046-13.377-1e-3 -16.83-0.226-16.847-1.688-0.127-7.595-0.233-7.898-0.141m19.488 2.798v2.824l7.713-4e-3c13.53-7e-3 12.77-1.03 12.781 17.199l7e-3 10.885h4.118l4.117-1e-3v-12.69c0-13.744 0.034-13.341-1.218-14.474-1.147-1.038-2.014-1.001 25.414-1.077 27.636-0.076 26.917-0.098 28.3 0.86 4.183 2.9 3.797 8.413-0.72 10.271-0.747 0.308-24.818 0.428-25.211 0.126-0.206-0.158-0.282-1.255-0.282-4.08v-3.864l-4.151 0.065-4.151 0.066-0.091 12.23c-0.05 6.726-0.03 12.305 0.044 12.398 0.074 0.092 1.958 0.194 4.185 0.225l4.051 0.058 0.061-5.415c0.033-2.978 0.104-5.536 0.158-5.685 0.073-0.203 2.028-0.274 7.835-0.285l7.739-0.014 1.108 1.639c0.61 0.901 2.438 3.432 4.061 5.624l2.952 3.987 4.255 0.018c3.319 0.014 4.23-0.044 4.146-0.264-0.117-0.303-5.57-8.103-5.798-8.291-0.391-0.325-1.623-2.521-1.489-2.656 0.087-0.086 0.785-0.225 1.552-0.31 2.034-0.224 3.601-0.606 3.805-0.927 0.098-0.154 0.179-0.202 0.181-0.106 5e-3 0.22 1.153-0.506 1.519-0.961 0.152-0.188 0.279-0.259 0.283-0.158 8e-3 0.207 2.488-2.22 2.488-2.434 0-0.076 0.21-0.362 0.466-0.636 0.255-0.274 0.686-0.98 0.957-1.569 0.271-0.59 0.544-1.072 0.606-1.072 0.254 0 0.062-6.41-0.194-6.495-0.142-0.047-0.203-0.176-0.135-0.286 0.187-0.302-0.507-1.505-1.251-2.169-0.364-0.324-0.606-0.679-0.538-0.788 0.067-0.11-0.012-0.172-0.176-0.138s-0.271-0.072-0.237-0.237c0.034-0.164-0.025-0.245-0.132-0.179-0.106 0.066-0.557-0.263-1-0.731-0.47-0.496-1.78-1.343-3.14-2.029l-2.332-1.178-82.656-0.096v2.824m109.16-2.691c-5.879 0.198-8.032 0.942-10.665 3.688-2.855 2.976-2.861 3.014-2.866 18.232l-5e-3 11.675 0.846 0.028c0.89 0.029 6.55-0.034 6.938-0.078 0.142-0.016 0.204-1.303 0.168-3.484-0.032-1.903 0.027-3.46 0.131-3.46s0.189-0.127 0.189-0.282c1e-3 -1.272 1.477-2.834 3.338-3.53 1.136-0.425 24.678-0.81 25.078-0.41 0.047 0.048 0.103 2.657 0.124 5.798l0.037 5.711 3.913-0.134c2.151-0.074 4.013-0.197 4.136-0.273 0.143-0.088 0.222-4.33 0.219-11.8-4e-3 -12.434-0.121-14.048-1.11-15.306-0.253-0.32-0.408-0.665-0.345-0.766 0.062-0.101-6e-3 -0.257-0.151-0.347-0.174-0.107-0.211-0.054-0.108 0.154 0.086 0.174 0.025 0.114-0.134-0.134-0.92-1.43-3.398-3.514-5.231-4.402l-1.927-0.932-9.313-0.041c-5.122-0.022-11.09 0.02-13.262 0.093m44.96 0.375c-2.319 0.527-6.42 3.406-6.91 4.852-0.074 0.219-0.26 0.371-0.413 0.339-0.153-0.033-0.295 0.068-0.317 0.223-0.021 0.155-0.051 0.376-0.066 0.492-0.016 0.115-0.196 0.377-0.401 0.581-0.872 0.873-0.974 2.433-0.977 15.002l-3e-3 12.07 4.201 0.079c3.158 0.059 4.16 0.014 4.038-0.184-0.09-0.145-0.089-2.744 2e-3 -5.776l0.165-5.513h12.108 12.109l1.125 0.561c2.761 1.376 3.5 2.97 3.416 7.374-0.032 1.738 0.031 3.215 0.142 3.284 0.26 0.16 7.112 0.217 7.365 0.06 0.317-0.196 0.332-24.505 0.016-25.83-0.899-3.771-4.684-6.712-9.738-7.566-2.223-0.376-24.239-0.416-25.862-0.048m-25.991 5.069c3.297 0.599 4.357 2.554 4.473 8.245l0.065 3.218-13.198-0.06c-7.726-0.035-13.147 0.024-13.074 0.142 0.069 0.111-0.14 0.152-0.464 0.09-0.325-0.062-0.619-0.039-0.654 0.052-0.216 0.555-1.481 0.45-1.628-0.134-0.279-1.115-0.093-7.333 0.239-7.969 0.168-0.324 0.307-0.707 0.308-0.853 8e-3 -1.536 2.415-2.622 6.205-2.799 3.394-0.158 16.767-0.107 17.728 0.068m-213.25 0.186c2.337 0.379 3.721 1.644 3.984 3.641 0.233 1.766 0.15 6.97-0.116 7.29-0.231 0.279-2.272 0.327-13.929 0.327-7.512 0-13.717 0.059-13.789 0.131s0.069 0.065 0.313-0.015c0.362-0.119 0.381-0.101 0.106 0.097-1.029 0.74-1.102 0.496-1.105-3.698-2e-3 -2.525 0.079-3.948 0.226-3.948 0.126 0 0.174-0.089 0.107-0.198-0.349-0.564 1.686-2.955 2.572-3.022 0.251-0.019 0.456-0.108 0.456-0.199 0-0.577 17.994-0.923 21.175-0.406m50.794 0.328c3.648 2.085 4.102 6.784 0.931 9.648-1.402 1.267-1.578 1.283-14.276 1.29-14.198 8e-3 -12.728 0.475-12.676-4.028 0.053-4.55 1.13-6.358 4.231-7.104 2.387-0.574 20.732-0.41 21.79 0.194m211.01-0.313c2.149 0.332 4.669 1.682 4.669 2.501 0 0.102 0.194 0.616 0.433 1.142 0.377 0.833 0.428 1.438 0.394 4.679l-0.038 3.723-0.62 0.071c-0.342 0.04-0.621-0.011-0.621-0.113 0-0.312-10.551-0.518-26.682-0.522h-1.076l0.021-3.61c0.013-2.269 0.105-3.61 0.248-3.61 0.126 0 0.183-0.126 0.128-0.282-0.273-0.767 1.543-2.987 2.964-3.624 0.391-0.175 2.81-0.308 7.026-0.387 3.536-0.066 7.577-0.142 8.981-0.169 1.403-0.027 3.281 0.063 4.173 0.201" fill="#eb1b3b" fill-rule="evenodd"/>
</svg>
